<svg width="42" height="42" viewBox="0 0 42 42" fill="none" xmlns="http://www.w3.org/2000/svg">
<rect width="42" height="42" fill="#E5E5E5"/>
<g clip-path="url(#clip0_207_10)">
<rect width="1400" height="5578" transform="translate(-975 -764)" fill="white"/>
<rect x="-975" y="-172" width="1400" height="677" fill="#6F764D"/>
<rect x="-26" y="-51" width="276" height="436" rx="10" fill="white"/>
<path d="M17.5104 4.99375C18.3979 1.33542 23.6021 1.33542 24.4896 4.99375C24.6227 5.54333 24.8838 6.05371 25.2515 6.48333C25.6192 6.91296 26.0831 7.2497 26.6055 7.46614C27.1279 7.68258 27.6941 7.77261 28.2579 7.72889C28.8217 7.68518 29.3672 7.50896 29.85 7.21458C33.0646 5.25625 36.7458 8.93542 34.7875 12.1521C34.4935 12.6347 34.3176 13.1799 34.274 13.7433C34.2304 14.3067 34.3203 14.8724 34.5365 15.3945C34.7527 15.9166 35.089 16.3804 35.5182 16.748C35.9473 17.1157 36.4572 17.3769 37.0062 17.5104C40.6646 18.3979 40.6646 23.6021 37.0062 24.4896C36.4567 24.6227 35.9463 24.8838 35.5167 25.2515C35.087 25.6192 34.7503 26.0831 34.5339 26.6055C34.3174 27.1279 34.2274 27.6941 34.2711 28.2579C34.3148 28.8217 34.491 29.3672 34.7854 29.85C36.7437 33.0646 33.0646 36.7458 29.8479 34.7875C29.3653 34.4935 28.8201 34.3176 28.2567 34.274C27.6933 34.2304 27.1276 34.3203 26.6055 34.5365C26.0834 34.7527 25.6196 35.089 25.252 35.5182C24.8843 35.9473 24.6231 36.4572 24.4896 37.0062C23.6021 40.6646 18.3979 40.6646 17.5104 37.0062C17.3773 36.4567 17.1162 35.9463 16.7485 35.5167C16.3808 35.087 15.9169 34.7503 15.3945 34.5339C14.8721 34.3174 14.3059 34.2274 13.7421 34.2711C13.1783 34.3148 12.6328 34.491 12.15 34.7854C8.93542 36.7437 5.25417 33.0646 7.2125 29.8479C7.50646 29.3653 7.6824 28.8201 7.72601 28.2567C7.76962 27.6933 7.67967 27.1276 7.46348 26.6055C7.24729 26.0834 6.91096 25.6196 6.48182 25.252C6.05268 24.8843 5.54284 24.6231 4.99375 24.4896C1.33542 23.6021 1.33542 18.3979 4.99375 17.5104C5.54333 17.3773 6.05371 17.1162 6.48333 16.7485C6.91296 16.3808 7.2497 15.9169 7.46614 15.3945C7.68258 14.8721 7.77261 14.3059 7.72889 13.7421C7.68518 13.1783 7.50896 12.6328 7.21458 12.15C5.25625 8.93542 8.93542 5.25417 12.1521 7.2125C14.2271 8.47917 16.9354 7.35833 17.5104 4.99375Z" stroke="black" stroke-width="3" stroke-linecap="round" stroke-linejoin="round"/>
<path d="M27.25 21C27.25 22.6576 26.5915 24.2473 25.4194 25.4194C24.2473 26.5915 22.6576 27.25 21 27.25C19.3424 27.25 17.7527 26.5915 16.5806 25.4194C15.4085 24.2473 14.75 22.6576 14.75 21C14.75 19.3424 15.4085 17.7527 16.5806 16.5806C17.7527 15.4085 19.3424 14.75 21 14.75C22.6576 14.75 24.2473 15.4085 25.4194 16.5806C26.5915 17.7527 27.25 19.3424 27.25 21V21Z" stroke="black" stroke-width="3" stroke-linecap="round" stroke-linejoin="round"/>
</g>
<defs>
<clipPath id="clip0_207_10">
<rect width="1400" height="5578" fill="white" transform="translate(-975 -764)"/>
</clipPath>
</defs>
</svg>
