<svg width="1049" height="50" viewBox="0 0 1049 50" fill="none" xmlns="http://www.w3.org/2000/svg">
<g clip-path="url(#clip0_598_39)">
<path fill-rule="evenodd" clip-rule="evenodd" d="M11.7066 31.9949C14.0957 35.8997 18.4757 38.5296 23.3335 38.5296C30.5008 38.5296 34.4826 32.3136 34.4826 32.3136L34.9605 33.9871C31.6157 38.2905 25.643 40.9203 19.0331 40.9203C11.388 40.9203 4.77819 37.2545 1.752 31.9949C0.637093 30.0026 0 27.8509 0 25.4602C0 16.9332 8.52111 10 19.1128 10C26.5986 10 32.5714 13.1877 35.7568 17.8098L23.2539 25.3008L30.4212 14.3033C28.3506 13.0283 25.8819 11.8329 23.2539 11.8329C15.9273 11.8329 9.87493 17.9692 9.87493 25.3008C9.87493 27.7712 10.512 30.0823 11.7066 31.9949Z" fill="#ED1C24"/>
<path fill-rule="evenodd" clip-rule="evenodd" d="M45.2336 31.9949C45.2336 32.2339 45.1539 32.473 45.1539 32.7121C45.1539 35.5013 47.3837 37.7326 50.171 37.7326C52.9583 37.7326 55.1881 35.5013 55.1881 32.7121C55.1881 32.473 55.1881 32.2339 55.1085 31.9152C54.7103 29.5244 52.6398 27.6118 50.171 27.6118C47.7023 27.7712 45.6317 29.6041 45.2336 31.9949ZM63.9482 31.9949L66.4169 40.4422H57.6569L55.9049 34.7044C54.7103 38.0514 50.8878 40.4422 46.1892 40.4422C40.6146 40.4422 36.155 36.9357 36.155 32.6324C36.155 32.3933 36.155 32.2339 36.155 31.9949C36.5532 27.9306 40.8536 24.7429 46.1892 24.7429C49.2154 24.7429 51.8434 25.7789 53.7547 27.3727L51.3656 19.4036H41.3314C41.3314 19.4036 43.0037 18.3676 50.4099 15.6581C57.8161 12.9486 60.2052 19.4036 60.2052 19.4036L63.9482 31.9949Z" fill="#ED1C24"/>
<path fill-rule="evenodd" clip-rule="evenodd" d="M91.9802 31.9949V40.4422H82.9813V31.9949V21.9538C82.9813 20.599 81.8664 19.4833 80.5126 19.4833C79.4773 19.4833 78.6013 20.1208 78.2031 21.0771V32.0746V40.5219H69.2838V31.9949V19.4833H64.1074C64.1074 19.4833 71.2747 15.1003 73.8231 15.1003C76.2122 15.1003 77.9642 16.9332 78.1235 19.2442C81.6275 17.3316 85.0518 15.1003 87.4409 15.1003C89.9097 15.1003 91.9006 17.0926 91.9802 19.4833V31.9949Z" fill="#ED1C24"/>
<path fill-rule="evenodd" clip-rule="evenodd" d="M105.837 31.9948L107.111 36.1388C107.111 37.892 108.624 39.3265 110.376 39.3265C112.208 39.3265 113.721 37.8123 113.721 35.9794C113.721 35.82 113.721 35.7403 113.721 35.581L112.686 31.9151L108.943 19.0848C108.784 17.4113 107.35 16.1362 105.678 16.1362C104.005 16.1362 102.333 17.7301 102.174 19.3239L105.837 31.9948ZM120.251 31.9948C118.579 37.1748 113.641 40.9203 107.908 40.9203C102.174 40.9203 97.2362 37.1748 95.5639 31.9948C95.1657 30.7198 94.9268 29.365 94.9268 27.9306C94.9268 20.7583 100.74 14.9409 107.908 14.9409C115.075 14.9409 120.888 20.7583 120.888 27.9306C120.888 29.365 120.649 30.7198 120.251 31.9948Z" fill="#ED1C24"/>
<path fill-rule="evenodd" clip-rule="evenodd" d="M135.223 31.9949V40.4422H126.383V31.9949V19.4833H121.446C121.446 19.4833 128.454 15.1003 130.922 15.1003C133.312 15.1003 135.064 16.9332 135.223 19.2442C138.727 17.3316 142.151 15.1003 144.54 15.1003C147.009 15.1003 149 17.0926 149.08 19.4833V31.9949V40.4422H140.081V31.9949V21.9538C140.081 20.599 138.966 19.4833 137.612 19.4833C136.577 19.4833 135.701 20.1208 135.302 21.0771V31.9949H135.223Z" fill="#ED1C24"/>
</g>
<g clip-path="url(#clip1_598_39)">
<path d="M385.045 37.8103C385.045 37.8103 385.512 37.622 386.214 36.963C386.916 36.3039 387.056 35.4565 387.711 34.6563C388.412 33.7618 389.956 32.3495 389.956 32.3495C389.956 32.3495 389.488 34.3267 389.067 35.2212C388.412 36.5393 387.711 36.963 387.711 36.963C387.711 36.963 388.085 37.1983 388.552 37.01C389.02 36.8217 389.535 36.5393 390.236 36.5864C390.938 36.6805 391.873 36.6805 392.762 36.1627C393.65 35.6448 394.445 35.0799 394.445 35.0799C394.445 35.0799 393.884 36.8217 391.639 37.8103C390.189 38.4223 388.506 38.4223 387.944 38.1399C387.43 37.8574 386.775 37.7162 386.308 37.8574C385.887 37.9515 385.045 37.8103 385.045 37.8103Z" fill="#00AEEF"/>
<path d="M392.294 28.5364C392.294 28.5364 392.294 30.2311 392.434 30.796C392.528 31.3609 392.434 32.1141 392.154 32.679C391.92 33.2439 391.499 34.0442 391.78 34.1854C392.06 34.3267 392.201 33.7147 392.809 33.2439C393.463 32.7732 394.633 32.2083 395.241 31.7846C396.27 31.1726 397.018 29.9957 397.018 29.9957C397.018 29.9957 396.55 32.632 394.399 34.1384C392.949 35.127 390.049 35.4094 390.049 35.4094C390.049 35.4094 390.376 35.127 390.517 34.4208C390.657 33.7147 390.751 32.2554 391.031 31.3138C391.405 30.4194 392.294 28.5364 392.294 28.5364Z" fill="#00AEEF"/>
<path d="M393.51 24.7233C393.51 24.7233 394.352 26.8417 394.445 27.4066C394.539 28.0186 394.399 29.7604 394.399 29.7604C394.399 29.7604 395.1 29.1484 395.755 28.0656C396.269 27.2183 397.018 26.9358 397.439 26.2768C397.86 25.6177 398.047 25.3352 398.047 25.3352C398.047 25.3352 397.626 27.2183 397.158 28.301C396.363 30.137 393.323 32.02 393.323 32.02C393.323 32.02 393.463 31.5022 393.557 30.4665C393.65 29.4308 393.37 28.2069 393.276 27.4537C393.183 26.6534 393.51 24.7233 393.51 24.7233Z" fill="#00AEEF"/>
<path d="M393.463 20.3923C393.463 20.3923 393.697 20.6747 394.212 21.475C394.726 22.2753 395.381 23.1227 395.428 23.5934C395.474 24.0642 395.708 24.6762 395.849 24.6291C395.989 24.582 395.989 24.0642 396.269 23.2168C396.503 22.3694 397.205 21.5692 397.345 20.9572C397.439 20.4393 397.626 19.7332 397.626 19.7332C397.626 19.7332 398 21.8516 397.532 23.5463C397.065 25.2411 396.082 26.0884 395.895 26.3238C395.755 26.5121 395.428 26.8416 395.428 26.8416C395.428 26.8416 395.568 26.9829 395.1 25.9472C394.633 24.8645 394.305 24.2054 393.884 23.4051C393.557 22.8873 393.463 20.3923 393.463 20.3923Z" fill="#00AEEF"/>
<path d="M392.388 16.8616C392.388 16.8616 393.557 17.5207 394.071 18.1327C394.679 18.7917 395.334 20.0157 395.568 19.9215C395.802 19.8745 395.568 18.8388 395.615 18.4622C395.662 18.0385 395.849 16.2496 395.755 15.7789C395.662 15.3081 395.521 14.602 395.521 14.602C395.521 14.602 396.831 16.5321 396.831 17.9444C396.784 19.3566 396.878 19.6391 396.27 20.7218C395.942 21.2867 395.755 22.087 395.755 22.087C395.755 22.087 395.568 21.6633 395.1 21.0984C394.633 20.5335 393.65 19.592 393.323 18.6976C392.902 17.8973 392.388 16.8616 392.388 16.8616Z" fill="#00AEEF"/>
<path d="M390.61 13.4722C390.61 13.4722 390.938 13.7546 391.452 14.1312C391.967 14.5078 392.668 14.7432 393.042 15.1198C393.417 15.4964 393.884 15.9201 394.071 15.826C394.258 15.7318 394.025 15.4023 393.744 14.602C393.463 13.8017 393.463 13.0014 393.229 12.6719C392.996 12.3424 392.762 11.6362 392.762 11.6362C392.762 11.6362 394.212 12.766 394.492 13.7076C394.773 14.6491 394.726 17.6148 394.726 17.6148C394.726 17.6148 394.446 17.2382 393.978 16.8616C393.463 16.485 392.201 15.5435 391.78 15.214C390.938 14.602 390.61 13.4722 390.61 13.4722Z" fill="#00AEEF"/>
<path d="M389.441 10.3181C389.441 10.3181 390.61 10.6476 391.359 11.2596C392.107 11.9187 392.715 13.6605 392.715 13.6605C392.715 13.6605 391.499 13.0485 390.985 12.5777C390.47 12.107 389.441 10.3181 389.441 10.3181Z" fill="#00AEEF"/>
<path d="M366.804 38.7518C366.804 38.7518 368.161 39.4579 369.19 39.3638C370.219 39.2696 371.201 38.9401 372.885 38.4693C374.615 38.0456 375.925 37.9044 376.673 38.0456C377.421 38.1869 378.778 38.3752 378.778 38.3752C378.778 38.3752 380.508 38.0927 381.911 38.0456C382.613 37.9986 383.548 38.1869 384.53 38.5164C385.512 38.8459 387.336 39.4108 388.319 39.4108C389.815 39.4108 390.938 38.8459 390.938 38.8459C390.938 38.8459 390.797 39.9287 387.243 40.2582C385.138 40.4465 384.25 40.3053 383.314 39.6933C382.379 39.0813 381.35 38.6105 380.929 38.5635C380.461 38.5635 379.76 38.6105 379.76 38.6105C379.76 38.6105 381.023 39.0813 381.677 39.5991C382.332 40.117 383.969 41.4351 383.969 41.4351L383.548 41.9058C383.548 41.9058 382.893 40.9643 381.864 40.2111C380.835 39.4579 379.386 38.7047 378.824 38.7047C378.263 38.7047 376.533 39.505 375.363 40.5877C374.288 41.6234 374.147 41.8588 374.147 41.8588L373.726 41.4351C373.726 41.4351 374.568 40.5877 375.691 39.8816C376.813 39.1284 377.982 38.5635 377.982 38.5635C377.982 38.5635 377.936 38.4693 377.281 38.5164C376.626 38.5635 376.065 38.6576 374.896 39.3638C373.726 40.0699 373.305 40.2582 372.277 40.3523C371.294 40.4936 369.33 40.2582 368.161 39.7874C367.085 39.3638 366.804 38.7518 366.804 38.7518Z" fill="#00AEEF"/>
<path d="M363.25 34.9387C363.25 34.9387 364.326 35.7861 364.84 36.0685C365.963 36.7276 366.945 36.3981 367.646 36.4922C368.348 36.5864 369.003 36.7747 369.19 36.8688C369.424 36.963 370.032 37.01 370.078 36.9159C370.125 36.7747 369.517 36.4922 369.003 35.6448C368.301 34.3738 367.88 32.3495 367.88 32.3495C367.88 32.3495 368.956 33.1028 369.891 34.3738C370.873 35.6448 370.733 36.3039 371.388 36.8688C372.089 37.4808 372.744 37.8103 372.744 37.8103C372.744 37.8103 371.856 37.7162 371.248 37.7632C370.593 37.8103 369.564 38.2811 368.582 38.234C367.646 38.234 365.869 38.1399 364.326 36.4451C363.39 35.3624 363.25 34.9387 363.25 34.9387Z" fill="#00AEEF"/>
<path d="M360.584 30.137C360.584 30.137 361.239 30.9843 362.127 31.7375C363.063 32.4908 364.466 32.9615 364.934 33.4793C365.401 34.0443 365.635 34.4679 365.869 34.3267C366.15 34.1855 365.682 33.7147 365.542 33.0086C365.355 32.3025 365.214 30.3724 365.355 29.6191C365.448 29.2425 365.401 28.6306 365.401 28.6306C365.401 28.6306 365.822 29.3367 366.337 30.5136C366.804 31.5492 366.758 33.3381 366.992 34.1384C367.179 34.9858 367.646 35.5507 367.646 35.5507C367.646 35.5507 366.196 35.4565 365.495 35.2211C364.793 34.9387 362.782 34.2326 362.034 32.9615C361.286 31.7375 360.584 30.137 360.584 30.137Z" fill="#00AEEF"/>
<path d="M359.695 25.3352C359.695 25.3352 359.976 26.0884 360.444 26.5121C360.911 26.9358 361.192 27.1711 361.753 27.8302C362.127 28.3009 363.016 29.9957 363.297 29.9486C363.531 29.9015 363.203 29.0071 363.25 28.1597C363.39 26.6533 364.326 24.9115 364.326 24.9115C364.326 24.9115 364.559 26.7474 364.466 27.8302C364.419 28.9129 364.045 30.1369 364.185 30.7489C364.326 31.3609 364.372 32.1611 364.372 32.1611C364.372 32.1611 362.969 31.2196 361.94 30.3252C360.958 29.4308 360.023 27.4065 359.882 26.7945C359.742 26.1355 359.695 25.3352 359.695 25.3352Z" fill="#00AEEF"/>
<path d="M360.07 19.9216C360.07 19.9216 359.882 22.6049 360.21 23.8288C360.724 25.806 362.268 27.0771 362.268 27.0771C362.268 27.0771 362.408 26.418 362.735 25.7119C363.063 25.0057 363.577 24.2996 363.811 23.7818C364.232 22.652 364.326 20.7219 364.326 20.7219C364.326 20.7219 363.951 21.2868 363.624 21.7104C363.297 22.1341 362.876 22.699 362.595 23.4522C362.268 24.2054 362.268 24.8645 361.894 24.9116C361.426 24.9587 361.8 24.2525 361.426 23.311C361.005 22.3695 360.444 21.3809 360.397 20.9102C360.257 20.3923 360.07 19.9216 360.07 19.9216Z" fill="#00AEEF"/>
<path d="M362.174 14.6962C362.174 14.6962 361.099 16.1555 360.958 17.4736C360.818 18.7917 360.911 19.8745 361.426 20.7689C361.753 21.3809 361.894 22.2753 361.894 22.2753C361.894 22.2753 362.081 21.8046 362.502 21.3338C362.923 20.8631 363.718 20.1569 364.232 19.2154C364.793 18.2739 365.261 17.0499 365.261 17.0499C365.261 17.0499 364.419 17.5207 363.905 17.9915C362.689 19.1213 362.081 20.1569 362.081 20.1569C362.081 20.1569 361.753 19.8274 361.847 19.4037C361.987 18.98 362.034 18.2739 361.987 17.7561C361.94 17.2383 361.8 16.9558 361.894 16.3438C362.034 15.7789 362.174 14.6962 362.174 14.6962Z" fill="#00AEEF"/>
<path d="M365.074 11.6833C365.074 11.6833 363.671 12.5778 363.25 13.6605C362.969 14.5079 363.063 15.3552 362.923 16.2497C362.782 17.097 362.969 17.709 362.969 17.709C362.969 17.709 363.063 17.4736 363.577 16.9558C364.092 16.3909 364.887 16.0614 365.401 15.6848C366.617 14.8374 367.132 13.5193 367.132 13.5193C367.132 13.5193 366.43 14.1784 366.103 14.3667C365.776 14.555 365.121 14.8845 364.606 15.214C364.232 15.4494 363.951 16.2026 363.951 16.2026C363.951 16.2026 363.484 15.7789 363.671 15.3082C363.811 14.8374 364.045 14.5079 364.139 14.0371C364.232 13.5664 364.372 12.9073 364.559 12.5307C364.84 12.2012 365.074 11.6833 365.074 11.6833Z" fill="#00AEEF"/>
<path d="M366.103 11.6362C366.664 11.0713 368.301 10.4594 368.301 10.4594C368.301 10.4594 367.6 11.6362 366.851 12.3895C365.963 13.2839 364.887 13.8017 364.887 13.8017C364.887 13.8017 365.074 12.5778 366.103 11.6362Z" fill="#00AEEF"/>
<path d="M373.633 13.5663C375.129 13.5663 378.123 15.1669 378.123 17.3324C378.123 18.6976 377.094 19.592 377.094 19.592C377.094 19.592 377.141 20.3452 377.047 20.5806C376.86 21.0043 376.673 20.9101 376.392 21.2867C376.112 21.6633 376.018 22.2753 374.942 22.2753C373.867 22.2753 373.867 21.9458 373.352 21.9458C372.838 21.9458 372.464 22.4636 372.464 22.4636V26.3709C372.464 26.3709 372.557 26.8887 373.539 27.4066C374.521 27.9244 375.27 28.2539 375.597 28.2539C375.878 28.2539 375.878 27.9244 376.252 27.9244C376.626 27.9244 378.123 27.9244 378.123 28.6305C378.123 29.3367 377.374 29.8074 374.709 29.8074C372.043 29.8074 371.201 29.572 370.873 29.572C370.546 29.572 370.546 29.6191 370.546 30.0428C370.546 30.4665 370.546 31.0314 370.546 31.0314C370.546 31.0314 371.014 31.7375 371.528 32.02C372.089 32.3024 372.37 32.4437 372.978 32.4437C373.586 32.4437 374.475 32.2554 375.223 31.9258C375.971 31.5963 376.673 31.408 377.515 31.408C378.357 31.408 379.853 31.2197 379.853 30.3253C379.853 29.4308 379.526 29.1484 379.526 28.4893C379.526 27.8303 379.619 27.2183 379.292 26.8887C378.965 26.5592 377.515 25.5235 377.515 24.9116C377.515 24.2996 378.029 24.0642 378.123 23.7347C378.17 23.4051 378.123 23.2168 378.357 23.1227C378.59 23.0756 378.731 22.9815 378.731 22.9815L378.824 22.4166C378.824 22.4166 379.105 22.2753 379.245 22.1341C379.386 21.9929 379.526 21.8987 379.526 21.8987C379.526 21.8987 379.386 21.475 379.619 21.2397C379.853 20.9572 380.181 21.0514 380.414 21.0514C380.648 21.0514 381.397 20.9572 381.397 20.9572C381.397 20.9572 381.631 20.5335 381.911 20.3452C382.332 20.0157 383.548 19.8274 383.829 19.592C384.109 19.3566 384.437 18.7447 385.279 18.7447C388.552 18.7447 390.797 21.7575 390.797 23.3581C390.797 26.1355 389.02 29.525 386.495 29.525C384.53 29.525 384.671 30.137 384.671 30.7489C384.671 32.2554 386.167 32.5378 386.167 32.5378C386.167 32.5378 383.08 34.8916 379.479 34.8916C376.065 34.8916 372.651 33.6205 370.219 30.8902C368.535 29.0071 367.225 26.5592 367.225 23.1227C367.225 21.8046 367.225 21.5692 367.225 21.5692C367.225 21.5692 368.114 20.8631 368.675 20.5806C369.236 20.2982 370.453 19.592 370.453 19.0271C370.453 18.4622 370.219 18.2268 370.219 17.0029C370.219 16.438 370.359 15.4023 370.873 14.6962C371.481 13.99 372.51 13.5663 373.633 13.5663Z" fill="#00AEEF"/>
<path d="M378.965 9.94153C371.715 9.94153 365.869 15.826 365.869 23.1227C365.869 30.4194 371.715 36.3039 378.965 36.3039C386.214 36.3039 392.06 30.4194 392.06 23.1227C392.06 15.8731 386.214 9.94153 378.965 9.94153ZM388.74 14.9786C389.441 15.7789 389.722 16.3909 389.722 16.3909C389.722 16.3909 389.254 16.8616 388.74 17.097C388.225 17.3324 387.243 17.709 387.243 17.709C387.243 17.709 386.869 16.5792 386.588 15.9672C386.308 15.3552 385.98 14.6491 385.98 14.6491C385.98 14.6491 386.261 14.4608 386.682 14.1313C387.103 13.8488 387.383 13.5664 387.383 13.5664C387.383 13.5664 388.178 14.2725 388.74 14.9786ZM384.437 11.5892C384.437 11.5892 385.325 11.9658 385.933 12.4365C386.541 12.8602 387.196 13.4251 387.196 13.4251C387.196 13.4251 387.103 13.6134 386.775 13.8488C386.448 14.0842 385.933 14.3196 385.933 14.3196C385.933 14.3196 385.512 13.7076 385.138 13.2368C384.764 12.7661 384.063 11.9658 384.063 11.9658C384.063 11.9658 384.203 11.8246 384.296 11.7304C384.39 11.5892 384.437 11.5892 384.437 11.5892ZM382.706 14.3196C382.566 13.7076 382.239 13.1427 382.239 13.1427C382.239 13.1427 382.8 12.8602 383.127 12.6248C383.501 12.3895 383.782 12.1541 383.782 12.1541C383.782 12.1541 384.39 12.7661 384.858 13.331C385.325 13.8959 385.606 14.4608 385.606 14.4608C385.606 14.4608 385.045 14.7432 384.343 15.0257C383.688 15.3081 382.847 15.4494 382.847 15.4494C382.847 15.4494 382.847 14.9315 382.706 14.3196ZM383.034 18.8388C383.034 18.8388 382.706 18.933 381.724 18.98C380.695 19.0271 379.806 18.98 379.806 18.98V16.0614C379.806 16.0614 380.602 16.1084 381.163 16.1084C381.724 16.1084 382.706 15.9201 382.706 15.9201C382.706 15.9201 382.753 16.3909 382.893 17.097C383.034 17.8032 383.034 18.8388 383.034 18.8388ZM383.361 11.1184C383.735 11.2126 384.156 11.495 384.156 11.495L383.782 11.7775C383.782 11.7775 383.501 11.5421 383.267 11.3067C382.987 11.0243 382.426 10.883 382.426 10.883C382.426 10.883 383.034 11.0243 383.361 11.1184ZM382.332 11.0243C382.987 11.4009 383.501 11.9658 383.501 11.9658C383.501 11.9658 383.267 12.1541 382.893 12.3895C382.566 12.6248 382.051 12.7661 382.051 12.7661C382.051 12.7661 381.771 12.0599 381.537 11.6363C381.35 11.2596 380.648 10.5064 380.648 10.5064C380.648 10.5064 381.677 10.6477 382.332 11.0243ZM379.76 10.4123C379.76 10.4123 380.461 10.224 381.116 11.4479C381.443 12.107 381.771 12.8131 381.771 12.8131C381.771 12.8131 381.256 12.9544 380.742 13.0485C380.227 13.0956 379.76 13.0014 379.76 13.0014V10.4123ZM379.76 13.4251C379.76 13.4251 380.274 13.4722 380.835 13.4251C381.397 13.378 381.958 13.2839 381.958 13.2839C381.958 13.2839 382.145 13.4722 382.332 14.3196C382.519 15.0728 382.566 15.5906 382.566 15.5906C382.566 15.5906 381.958 15.7789 381.116 15.826C380.274 15.8731 379.76 15.7789 379.76 15.7789V13.4251ZM379.339 10.4123L379.386 13.0956C379.386 13.0956 378.824 13.1427 378.216 12.9544C377.608 12.7661 377.328 12.5778 377.328 12.5778C377.328 12.5778 377.655 11.9187 378.076 11.3067C379.011 10.0357 379.339 10.4123 379.339 10.4123ZM378.544 10.3652C378.544 10.3652 377.936 10.9301 377.655 11.4479C377.374 11.9658 377 12.4836 377 12.4836C377 12.4836 376.533 12.2953 376.205 12.0599C375.878 11.8246 375.738 11.6363 375.738 11.6363C375.738 11.6363 376.252 11.0243 377.187 10.6947C378.123 10.3652 378.544 10.3652 378.544 10.3652ZM376.112 10.6477C376.579 10.5064 377 10.5064 377 10.5064C377 10.5064 376.439 10.7889 376.158 11.0243C375.831 11.2596 375.597 11.4479 375.597 11.4479C375.597 11.4479 375.457 11.3538 375.363 11.2126C375.317 11.0713 375.27 10.9301 375.27 10.9301C375.27 10.9301 375.597 10.7889 376.112 10.6477ZM379.011 35.9273C372.557 35.9273 366.243 30.7489 366.243 23.1698C366.243 13.6605 374.849 11.0243 374.849 11.0243L375.363 11.495C375.363 11.495 374.896 11.7775 374.521 12.2012C374.147 12.5778 373.913 12.9073 373.913 12.9073L374.147 13.0956C374.147 13.0956 374.428 12.719 374.709 12.3895C375.036 12.1541 375.504 11.8246 375.504 11.8246C375.504 11.8246 375.925 12.2953 376.205 12.4365C376.486 12.5778 376.907 12.7661 376.907 12.7661C376.907 12.7661 376.86 13.0014 376.766 13.2368C376.673 13.5193 376.533 13.8488 376.533 13.8488L376.813 13.99C376.813 13.99 377 13.4722 377.094 13.2839C377.187 13.0956 377.281 12.8602 377.281 12.8602C377.281 12.8602 377.936 13.1427 378.497 13.2368C379.058 13.378 379.432 13.331 379.432 13.331V15.5906H378.59V16.0614H379.432V18.8859H378.731V19.2154H379.432V20.2982H379.76V19.2625C379.76 19.2625 380.227 19.2625 381.397 19.2154C382.566 19.1683 383.314 19.0271 383.314 19.0271C383.314 19.0271 383.267 17.9444 383.174 17.1441C383.08 16.3438 382.893 15.7318 382.893 15.7318C382.893 15.7318 383.548 15.6377 384.296 15.3552C385.045 15.0728 385.653 14.7432 385.653 14.7432C385.653 14.7432 386.027 15.3081 386.354 16.1555C386.635 16.9558 386.962 17.8032 386.962 17.8032L386.448 18.0385L386.541 18.2739L387.103 18.0856L387.29 18.4622L387.524 18.3681L387.336 17.9915C387.336 17.9915 388.038 17.8032 388.74 17.4266C389.441 17.0499 389.956 16.7204 389.956 16.7204C389.956 16.7204 391.686 19.3567 391.686 23.1698C391.686 28.9601 387.243 35.9273 379.011 35.9273Z" fill="#00AEEF"/>
<path d="M252.733 40.9173V37.5749L252.639 37.4808C251.049 40.1641 249.084 41.5763 245.39 41.5763C242.069 41.5293 238 39.9287 238 34.4679V17.9915H241.835V33.1969C241.835 36.9629 243.753 38.234 246.232 38.234C251.049 38.234 252.499 33.9501 252.499 30.6077V17.9915H256.334V40.9173H252.733Z" fill="#00AEEF"/>
<path d="M280.607 40.9173H276.772V26.7946C276.772 22.7932 275.65 20.816 271.908 20.816C269.71 20.816 265.922 22.2283 265.922 28.4422V40.9173H262.087V17.9915H265.688V21.2397H265.781C266.623 20.0157 268.728 17.3324 272.657 17.3324C276.164 17.3324 280.607 18.7917 280.607 25.2882V40.9173Z" fill="#00AEEF"/>
<path d="M286.36 13.8017V9.42365H290.195V13.8017H286.36ZM290.195 40.9172H286.36V17.9914H290.195V40.9172Z" fill="#00AEEF"/>
<path d="M310.166 25.7119C309.698 22.6519 307.968 20.816 304.787 20.816C300.064 20.816 298.52 25.3823 298.52 29.4308C298.52 33.3852 299.456 38.234 304.741 38.234C307.313 38.234 309.511 36.3039 310.166 32.8203H313.861C313.487 36.4451 311.242 41.5763 304.6 41.5763C298.193 41.5763 294.405 36.7275 294.405 30.0899C294.405 22.9815 297.819 17.3324 305.349 17.3324C311.288 17.3324 313.58 21.7104 313.861 25.7119H310.166Z" fill="#00AEEF"/>
<path d="M337.012 33.7147C336.872 34.7975 335.843 38.0457 332.943 39.9758C331.914 40.6819 330.417 41.5293 326.769 41.5293C320.362 41.5293 316.574 36.6805 316.574 30.0428C316.574 22.9344 319.988 17.2853 327.518 17.2853C334.112 17.2853 337.293 22.5578 337.293 30.6548H320.643C320.643 35.4094 322.841 38.1869 327.237 38.1869C330.838 38.1869 332.99 35.3624 333.13 33.6677H337.012V33.7147ZM333.364 27.5949C333.177 24.0642 331.68 20.7689 327.003 20.7689C323.495 20.7689 320.689 24.0642 320.689 27.5949H333.364Z" fill="#00AEEF"/>
<path d="M346.647 21.1926V40.9173H342.811V21.1926H339.678V17.9914H342.811V14.0371C342.811 10.6006 345.01 9 348.751 9C349.312 9 349.874 9.04708 350.482 9.09415V12.5777C350.014 12.5307 349.406 12.4836 348.892 12.4836C347.255 12.4836 346.647 13.331 346.647 15.1669V18.0385H350.482V21.2397H346.647" fill="#00AEEF"/>
</g>
<path fill-rule="evenodd" clip-rule="evenodd" d="M677.027 8L695.055 20.3707C695.055 20.3707 690.661 23.2371 685.814 23.2371C683.541 23.2371 682.178 22.3319 678.845 20.2198C675.512 17.9569 673.998 16.9009 673.695 16.5991C672.937 15.9957 672.028 16.75 672.634 17.3534C673.392 17.9569 694.752 32.2888 694.752 32.2888C694.752 32.2888 686.723 35.0043 676.876 43L659 30.4784C659 30.4784 663.393 27.6121 668.241 27.6121C670.513 27.6121 671.877 28.5172 675.209 30.6293C678.542 32.8922 680.057 33.9483 680.36 34.25C681.118 34.7026 682.026 33.9483 681.269 33.3448C680.663 32.8922 659.151 18.7112 659.151 18.7112C659.151 18.7112 667.18 15.9957 677.027 8Z" fill="#ED1C24"/>
<path fill-rule="evenodd" clip-rule="evenodd" d="M712.476 29.4224C712.476 29.7241 712.93 31.6853 716.112 31.6853C718.536 31.6853 719.142 30.931 719.142 30.3276C719.142 26.7069 703.084 30.3276 703.084 21.8793C703.084 16.75 708.84 14.9396 714.9 14.9396C728.382 14.9396 727.473 21.4267 727.473 21.4267H717.93C717.93 20.2198 716.112 19.1638 714.9 19.1638C713.839 19.1638 711.416 19.1638 711.416 20.6724C711.416 23.5388 728.231 21.4267 728.231 29.2715C728.231 31.987 726.716 36.0603 715.203 36.0603C701.114 36.0603 702.629 29.2715 702.629 29.2715H712.476V29.4224Z" fill="#2E3192"/>
<path d="M842 15.2414H834.728V35.306H842V15.2414Z" fill="#2E3192"/>
<path fill-rule="evenodd" clip-rule="evenodd" d="M806.854 35.306V15.2414H813.974V22.7845L822.761 15.2414H832.911L821.549 24.5948L832.911 35.306H822.609L813.974 27.6121V35.306H806.854Z" fill="#2E3192"/>
<path fill-rule="evenodd" clip-rule="evenodd" d="M767.012 30.3276H778.98V35.306H755.045V31.2328L767.012 20.3707H755.499V15.2414H778.98V19.6164L767.012 30.3276Z" fill="#2E3192"/>
<path fill-rule="evenodd" clip-rule="evenodd" d="M728.988 15.2414H736.866C736.866 15.2414 736.866 23.6897 736.866 27.7629C736.866 30.3276 739.138 31.3836 741.411 31.3836C743.683 31.3836 745.955 30.3276 745.955 27.7629C745.955 23.6897 745.955 15.2414 745.955 15.2414H753.53C753.53 15.2414 753.53 24.7457 753.53 29.1207C753.53 35.0043 746.713 35.7586 741.259 35.7586C735.805 35.7586 728.988 35.1552 728.988 29.1207C728.988 24.8966 728.988 15.2414 728.988 15.2414Z" fill="#2E3192"/>
<path fill-rule="evenodd" clip-rule="evenodd" d="M780.344 15.2414H788.221C788.221 15.2414 788.221 23.6897 788.221 27.7629C788.221 30.3276 790.493 31.3836 792.766 31.3836C795.038 31.3836 797.31 30.3276 797.31 27.7629C797.31 23.6897 797.31 15.2414 797.31 15.2414H804.885C804.885 15.2414 804.885 24.7457 804.885 29.1207C804.885 35.0043 798.068 35.7586 792.614 35.7586C787.161 35.7586 780.344 35.1552 780.344 29.1207C780.344 24.8966 780.344 15.2414 780.344 15.2414Z" fill="#2E3192"/>
<path d="M1049 5H931V45H1049V5Z" fill="#ED1C24"/>
<path d="M948.677 14.745C947.994 13.5906 946.983 12.8389 945.453 12.8389C943.978 12.8389 942.393 13.9396 942.147 15.443C941.519 19.3356 951.163 17.7248 949.906 25.4832C949.169 30.1275 945.671 33.4027 940.863 33.4027C937.612 33.4027 935.508 31.5503 934.333 28.8926L937.776 26.047C938.104 27.8456 939.47 29.4295 941.437 29.4295C943.322 29.4295 944.743 27.8725 945.043 26.0738C945.426 23.6846 943.295 23.0134 941.546 22.2886C938.732 21.0537 936.737 19.5503 937.311 15.953C937.94 12.1409 941.355 9.02686 945.316 9.02686C947.42 9.02686 950.125 10.047 951.327 11.604L948.677 14.745Z" fill="white"/>
<path d="M956.545 17.7249L955.234 25.8859C954.961 27.604 954.879 29.6712 957.119 29.6712C959.332 29.6712 959.96 27.604 960.234 25.8859L961.545 17.7249H965.916L964.468 26.6108C963.758 31.0134 961.053 33.3222 956.491 33.3222C951.928 33.3222 949.988 31.0134 950.699 26.6108L952.147 17.7249H956.545Z" fill="white"/>
<path d="M971.681 19.1208C972.856 17.9665 974.577 17.2416 976.216 17.2416C980.561 17.2416 982.582 21.2416 981.927 25.1879C981.271 29.2953 978.047 33.2953 973.512 33.2953C971.954 33.2953 970.424 32.6242 969.741 31.3893H969.687L968.184 40.8658H963.813L967.528 17.7249H971.9L971.681 19.1208ZM977.501 25.2685C977.801 23.2282 976.818 21.0537 974.55 21.0537C972.31 21.0537 970.534 23.2282 970.233 25.2685C969.933 27.3088 970.916 29.5101 973.184 29.5101C975.424 29.5101 977.173 27.2819 977.501 25.2685Z" fill="white"/>
<path d="M988.292 19.3088H988.347C989.44 17.9933 990.861 17.2416 992.473 17.2416C993.101 17.2416 993.729 17.4027 994.221 17.6175L993.074 21.6175C992.609 21.2416 992.008 21.0537 991.352 21.0537C988.32 21.0537 987.582 23.6846 987.2 26.0202L986.107 32.8121H981.735L984.167 17.7249H988.538L988.292 19.3088Z" fill="white"/>
<path d="M996.953 25.9665C996.68 27.8725 997.035 30.0202 999.33 30.0202C1000.78 30.0202 1001.84 29.1611 1002.61 27.9531L1006.54 28.5973C1004.99 31.6041 1002.01 33.2953 998.784 33.2953C994.03 33.2953 991.68 29.9665 992.418 25.4027C993.156 20.8121 996.188 17.2416 1001.16 17.2416C1006.19 17.2416 1007.85 20.8926 1007.14 25.4564L1007.06 25.9665H996.953ZM1003.37 23.3088C1003.4 21.7786 1002.66 20.2752 1000.97 20.2752C999.221 20.2752 997.991 21.7517 997.527 23.3088H1003.37Z" fill="white"/>
<path d="M1013.37 19.094H1013.43C1014.47 17.8859 1016.05 17.2416 1017.47 17.2416C1019.38 17.2416 1020.75 18.0202 1021.51 19.6041C1022.69 18.1275 1024.57 17.2416 1026.35 17.2416C1030.26 17.2416 1030.75 20.141 1030.23 23.4161L1028.73 32.8121H1024.36L1025.64 24.8926C1025.86 23.4161 1026.43 20.6779 1024.27 20.6779C1021.9 20.6779 1021.41 23.8457 1021.16 25.4027L1019.99 32.8121H1015.61L1016.84 25.1611C1017.09 23.6846 1017.77 20.6779 1015.5 20.6779C1013.07 20.6779 1012.66 23.8188 1012.42 25.4027L1011.24 32.8121H1006.87L1009.3 17.7249H1013.67L1013.37 19.094Z" fill="white"/>
<path d="M1035.53 25.9665C1035.26 27.8725 1035.61 30.0202 1037.91 30.0202C1039.36 30.0202 1040.42 29.1611 1041.19 27.9531L1045.12 28.5973C1043.56 31.6041 1040.59 33.2953 1037.36 33.2953C1032.61 33.2953 1030.26 29.9665 1031 25.4027C1031.73 20.8121 1034.77 17.2416 1039.74 17.2416C1044.77 17.2416 1046.43 20.8926 1045.72 25.4564L1045.64 25.9665H1035.53ZM1041.92 23.3088C1041.95 21.7786 1041.21 20.2752 1039.52 20.2752C1037.77 20.2752 1036.54 21.7517 1036.08 23.3088H1041.92Z" fill="white"/>
<path fill-rule="evenodd" clip-rule="evenodd" d="M545.113 50L546.4 49.9554L547.642 49.8661L548.884 49.6875L550.126 49.4643L551.324 49.1964L552.522 48.8839L553.675 48.4821L554.784 48.0357L555.893 47.5L556.958 46.9643L558.022 46.3839L559.043 45.7143L560.019 45L560.95 44.2857L561.838 43.4821L562.725 42.6339L563.523 41.7857L564.322 40.8929L565.032 39.9107L565.741 38.9732L566.407 37.9464L566.983 36.875L567.56 35.8036L568.048 34.6875L568.492 33.5714L568.891 32.4107L569.202 31.2054L569.512 30L569.689 28.75L569.867 27.5L569.956 26.25L570 24.9554L569.956 23.6607L569.867 22.4107L569.689 21.1607L569.512 19.9107L569.202 18.7054L568.891 17.5446L568.492 16.3839L568.048 15.2679L567.56 14.1518L566.983 13.0804L566.407 12.0536L565.741 11.0268L565.032 10.0446L564.322 9.10714L563.523 8.16964L562.725 7.32143L561.838 6.47321L560.95 5.71429L560.019 4.95536L559.043 4.28571L558.022 3.61607L556.958 3.03571L555.893 2.45536L554.784 1.96429L553.675 1.51786L552.522 1.11607L551.324 0.803571L550.126 0.491071L548.884 0.267857L547.642 0.133929L546.4 0.0446429L545.113 0L543.827 0.0446429L542.585 0.133929L541.343 0.267857L540.101 0.491071L538.903 0.803571L537.749 1.11607L536.596 1.51786L535.443 1.96429L534.334 2.45536L533.269 3.03571L532.249 3.61607L531.228 4.28571L530.252 4.95536L529.321 5.71429L528.433 6.47321L527.591 7.32143L526.748 8.16964L525.994 9.10714L525.239 10.0446L524.53 11.0268L523.909 12.0536L523.332 13.0804L522.755 14.1518L522.267 15.2679L521.824 16.3839L521.424 17.5446L521.114 18.7054L520.803 19.9107L520.626 21.1607L520.448 22.4107L520.36 23.6607L520.315 24.9554L520.36 26.25L520.448 27.5L520.626 28.75L520.803 30L521.114 31.2054L521.424 32.4107L521.824 33.5714L522.267 34.6875L522.755 35.8036L523.332 36.875L523.909 37.9464L524.53 38.9732L525.239 39.9107L525.994 40.8929L526.748 41.7857L527.591 42.6339L528.433 43.4821L529.321 44.2857L530.252 45L531.228 45.7143L532.249 46.3839L533.269 46.9643L534.334 47.5L535.443 48.0357L536.596 48.4821L537.749 48.8839L538.903 49.1964L540.101 49.4643L541.343 49.6875L542.585 49.8661L543.827 49.9554L545.113 50Z" fill="#FCB331"/>
<path fill-rule="evenodd" clip-rule="evenodd" d="M511.887 50L513.173 49.9554L514.415 49.8661L515.657 49.6875L516.9 49.4643L518.097 49.1964L519.251 48.8839L520.404 48.4821L521.557 48.0357L522.622 47.5L523.687 46.9643L524.751 46.3839L525.727 45.7143L526.703 45L527.679 44.2857L528.567 43.4821L529.409 42.6339L530.252 41.7857L531.006 40.8929L531.761 39.9107L532.426 38.9732L533.091 37.9464L533.668 36.875L534.245 35.8036L534.733 34.6875L535.176 33.5714L535.576 32.4107L535.886 31.2054L536.152 30L536.374 28.75L536.552 27.5L536.64 26.25L536.685 24.9554L536.64 23.6607L536.552 22.4107L536.374 21.1607L536.152 19.9107L535.886 18.7054L535.576 17.5446L535.176 16.3839L534.733 15.2679L534.245 14.1518L533.668 13.0804L533.091 12.0536L532.426 11.0268L531.761 10.0446L531.006 9.10714L530.252 8.16964L529.409 7.32143L528.567 6.47321L527.679 5.71429L526.703 4.95536L525.727 4.28571L524.751 3.61607L523.687 3.03571L522.622 2.45536L521.557 1.96429L520.404 1.51786L519.251 1.11607L518.097 0.803571L516.9 0.491071L515.657 0.267857L514.415 0.133929L513.173 0.0446429L511.887 0L510.6 0.0446429L509.358 0.133929L508.116 0.267857L506.874 0.491071L505.676 0.803571L504.478 1.11607L503.325 1.51786L502.216 1.96429L501.107 2.45536L499.998 3.03571L498.978 3.61607L497.957 4.28571L496.981 4.95536L496.05 5.71429L495.162 6.47321L494.275 7.32143L493.477 8.16964L492.678 9.10714L491.924 10.0446L491.259 11.0268L490.593 12.0536L490.017 13.0804L489.44 14.1518L488.952 15.2679L488.508 16.3839L488.109 17.5446L487.799 18.7054L487.488 19.9107L487.266 21.1607L487.133 22.4107L487.044 23.6607L487 24.9554L487.044 26.25L487.133 27.5L487.266 28.75L487.488 30L487.799 31.2054L488.109 32.4107L488.508 33.5714L488.952 34.6875L489.44 35.8036L490.017 36.875L490.593 37.9464L491.259 38.9732L491.924 39.9107L492.678 40.8929L493.477 41.7857L494.275 42.6339L495.162 43.4821L496.05 44.2857L496.981 45L497.957 45.7143L498.978 46.3839L499.998 46.9643L501.107 47.5L502.216 48.0357L503.325 48.4821L504.478 48.8839L505.676 49.1964L506.874 49.4643L508.116 49.6875L509.358 49.8661L510.6 49.9554L511.887 50Z" fill="#ED1C2E"/>
<path fill-rule="evenodd" clip-rule="evenodd" d="M525.594 9.59822H538.77V8.21429H526.748L525.594 9.59822Z" fill="#FCB331"/>
<path fill-rule="evenodd" clip-rule="evenodd" d="M523.598 12.5893H538.77V11.25H524.397L523.598 12.5893Z" fill="#FCB331"/>
<path fill-rule="evenodd" clip-rule="evenodd" d="M522.134 15.625H538.77V14.241H522.711L522.134 15.625Z" fill="#FCB331"/>
<path fill-rule="evenodd" clip-rule="evenodd" d="M521.114 18.6161H538.77V17.2768H521.557L521.114 18.6161Z" fill="#FCB331"/>
<path fill-rule="evenodd" clip-rule="evenodd" d="M521.691 33.2143H538.814V31.875H521.291L521.691 33.2143Z" fill="#FCB331"/>
<path fill-rule="evenodd" clip-rule="evenodd" d="M522.977 36.25H538.814V34.8661H522.356L522.977 36.25Z" fill="#FCB331"/>
<path fill-rule="evenodd" clip-rule="evenodd" d="M524.751 39.2411H538.814V37.9018H523.909L524.751 39.2411Z" fill="#FCB331"/>
<path fill-rule="evenodd" clip-rule="evenodd" d="M527.191 42.2768H538.814V40.8929H526.038L527.191 42.2768Z" fill="#FCB331"/>
<path fill-rule="evenodd" clip-rule="evenodd" d="M520.537 21.6518H538.77V20.2678H520.803L520.537 21.6518Z" fill="#FCB331"/>
<path fill-rule="evenodd" clip-rule="evenodd" d="M531.672 30.2232H538.637V28.8393H531.894L531.672 30.2232Z" fill="#FCB331"/>
<path fill-rule="evenodd" clip-rule="evenodd" d="M532.204 27.1875H538.637V25.8482H532.47L532.204 27.1875Z" fill="#FCB331"/>
<path fill-rule="evenodd" clip-rule="evenodd" d="M520.049 25.8482H521.868V27.1875H520.138L520.049 25.8482Z" fill="#FCB331"/>
<path fill-rule="evenodd" clip-rule="evenodd" d="M516.678 24.1964H516.589L516.456 24.1518H516.367H516.234L516.145 24.1072H516.012L515.924 24.0625H515.791H515.702L515.569 24.0179H515.391H515.258H515.081H514.859L514.637 24.0625H514.415L514.238 24.1072H514.105L513.927 24.1518L513.839 24.1964L513.706 24.2857L513.572 24.3304L513.528 24.4197L513.439 24.5089L513.395 24.5982L513.351 24.6875L513.306 24.7768V24.9107L513.351 25L513.395 25.0893L513.439 25.2232L513.528 25.3125L513.706 25.4911L513.883 25.625L514.149 25.7143L514.371 25.8036L514.637 25.8929L514.948 25.9822L515.214 26.1161L515.48 26.2054L515.746 26.3393L515.968 26.5179L516.19 26.7411L516.367 27.0089L516.5 27.3214L516.545 27.6786L516.589 28.1697L516.545 28.7054L516.5 29.0625L516.412 29.4197L516.278 29.7322L516.101 30.0447L515.924 30.2679L515.702 30.4911L515.48 30.6697L515.214 30.8036L514.948 30.9375L514.637 31.0714L514.371 31.1607L514.06 31.2054L513.794 31.25L513.528 31.2947H513.262H512.996H512.641H512.286H511.975H511.709H511.443L511.221 31.25H511.044H510.822L510.689 31.2054L510.512 31.1607H510.334L510.201 31.1161L510.068 31.0714L509.935 31.0268L509.802 30.9822L509.669 30.9375L510.024 29.0625H510.112L510.201 29.1072L510.334 29.1518H510.467L510.6 29.1964L510.778 29.2411L510.955 29.2857L511.177 29.3304H511.354L511.576 29.375L511.798 29.4197H512.064L512.286 29.4643H512.552H512.774H513.04L513.262 29.375L513.439 29.3304L513.617 29.2411L513.706 29.1072L513.794 28.9732L513.883 28.8393L513.927 28.7054L513.972 28.6161V28.3482L513.883 28.125L513.75 27.9911L513.528 27.8125L513.306 27.7232L512.996 27.5893L512.685 27.4554L512.33 27.3214L512.02 27.1875L511.709 27.0089L511.399 26.7857L511.133 26.5179L510.911 26.2054L510.778 25.8036L510.689 25.3572V24.8214L510.733 24.5089L510.822 24.1964L510.866 23.8839L510.999 23.6161L511.133 23.3929L511.266 23.1697L511.443 22.9464L511.665 22.7679L511.887 22.5893L512.153 22.4554L512.463 22.3214L512.818 22.2322L513.173 22.1875L513.572 22.0982L514.06 22.0536H514.548H514.859H515.125L515.391 22.0982H515.613H515.835L516.012 22.1429H516.19H516.367L516.5 22.1875H516.589L516.722 22.2322H516.811H516.9L516.988 22.2768H517.033H517.121L516.678 24.1964Z" fill="white"/>
<path d="M516.678 24.1964H516.589L516.456 24.1518H516.367H516.234L516.145 24.1072H516.012L515.924 24.0625H515.791H515.702L515.569 24.0179H515.391H515.258H515.081H514.859L514.637 24.0625H514.415L514.238 24.1072H514.105L513.927 24.1518L513.839 24.1964L513.706 24.2857L513.572 24.3304L513.528 24.4197L513.439 24.5089L513.395 24.5982L513.351 24.6875L513.306 24.7768V24.9107L513.351 25L513.395 25.0893L513.439 25.2232L513.528 25.3125L513.706 25.4911L513.883 25.625L514.149 25.7143L514.371 25.8036L514.637 25.8929L514.948 25.9822L515.214 26.1161L515.48 26.2054L515.746 26.3393L515.968 26.5179L516.19 26.7411L516.367 27.0089L516.5 27.3214L516.545 27.6786L516.589 28.1697L516.545 28.7054L516.5 29.0625L516.412 29.4197L516.278 29.7322L516.101 30.0447L515.924 30.2679L515.702 30.4911L515.48 30.6697L515.214 30.8036L514.948 30.9375L514.637 31.0714L514.371 31.1607L514.06 31.2054L513.794 31.25L513.528 31.2947H513.262H512.996H512.641H512.286H511.975H511.709H511.443L511.221 31.25H511.044H510.822L510.689 31.2054L510.512 31.1607H510.334L510.201 31.1161L510.068 31.0714L509.935 31.0268L509.802 30.9822L509.669 30.9375L510.024 29.0625H510.112L510.201 29.1072L510.334 29.1518H510.467L510.6 29.1964L510.778 29.2411L510.955 29.2857L511.177 29.3304H511.354L511.576 29.375L511.798 29.4197H512.064L512.286 29.4643H512.552H512.774H513.04L513.262 29.375L513.439 29.3304L513.617 29.2411L513.706 29.1072L513.794 28.9732L513.883 28.8393L513.927 28.7054L513.972 28.6161V28.3482L513.883 28.125L513.75 27.9911L513.528 27.8125L513.306 27.7232L512.996 27.5893L512.685 27.4554L512.33 27.3214L512.02 27.1875L511.709 27.0089L511.399 26.7857L511.133 26.5179L510.911 26.2054L510.778 25.8036L510.689 25.3572V24.8214L510.733 24.5089L510.822 24.1964L510.866 23.8839L510.999 23.6161L511.133 23.3929L511.266 23.1697L511.443 22.9464L511.665 22.7679L511.887 22.5893L512.153 22.4554L512.463 22.3214L512.818 22.2322L513.173 22.1875L513.572 22.0982L514.06 22.0536H514.548H514.859H515.125L515.391 22.0982H515.613H515.835L516.012 22.1429H516.19H516.367L516.5 22.1875H516.589L516.722 22.2322H516.811H516.9L516.988 22.2768H517.033H517.121L516.678 24.1964Z" stroke="white" stroke-width="0.216" stroke-miterlimit="2.6131"/>
<path fill-rule="evenodd" clip-rule="evenodd" d="M518.674 20.2232H520.981L520.67 22.2321H522.045L521.735 24.1518L520.271 24.1071L519.472 28.7946V28.9732L519.517 29.1071L519.606 29.2411L519.694 29.3303L519.872 29.375L520.005 29.4196L520.182 29.4643H520.404H520.581H520.759L520.892 29.4196H521.025L521.158 29.375L521.203 29.3303H521.291L520.981 30.8928L520.936 30.9375L520.892 30.9821H520.803L520.759 31.0268L520.715 31.0714H520.626L520.581 31.1161H520.493L520.404 31.1607H520.315L520.227 31.2053H520.138H520.005L519.872 31.25H519.739H519.606H518.984H518.63L518.363 31.2053L518.053 31.1607L517.831 31.1161L517.654 31.0268L517.476 30.9375L517.343 30.8482L517.254 30.7143L517.166 30.625L517.121 30.4911L517.077 30.3125L517.033 30.1786V30V29.8214V29.5982L517.077 29.4196L518.674 20.2232Z" fill="white"/>
<path d="M518.674 20.2232H520.981L520.67 22.2321H522.045L521.735 24.1518L520.271 24.1071L519.472 28.7946V28.9732L519.517 29.1071L519.606 29.2411L519.694 29.3303L519.872 29.375L520.005 29.4196L520.182 29.4643H520.404H520.581H520.759L520.892 29.4196H521.025L521.158 29.375L521.203 29.3303H521.291L520.981 30.8928L520.936 30.9375L520.892 30.9821H520.803L520.759 31.0268L520.715 31.0714H520.626L520.581 31.1161H520.493L520.404 31.1607H520.315L520.227 31.2053H520.138H520.005L519.872 31.25H519.739H519.606H518.984H518.63L518.363 31.2053L518.053 31.1607L517.831 31.1161L517.654 31.0268L517.476 30.9375L517.343 30.8482L517.254 30.7143L517.166 30.625L517.121 30.4911L517.077 30.3125L517.033 30.1786V30V29.8214V29.5982L517.077 29.4196L518.674 20.2232Z" stroke="white" stroke-width="0.216" stroke-miterlimit="2.6131"/>
<path fill-rule="evenodd" clip-rule="evenodd" d="M523.909 27.3214L523.864 27.4554V27.6339L523.909 27.7679V27.9464L523.997 28.0804L524.042 28.2589L524.13 28.3929L524.219 28.5714L524.352 28.7054L524.485 28.8393L524.618 28.9732L524.751 29.0625L524.929 29.1518L525.106 29.2411L525.239 29.2857L525.417 29.3304H525.639L525.861 29.375L526.082 29.4197H526.304H526.482H526.748H526.925H527.191L527.413 29.375L527.635 29.3304L527.857 29.2857L528.079 29.1964L528.3 29.1072L528.567 29.0179L528.788 28.8839L529.055 28.7054L528.7 30.8036L528.567 30.8482L528.433 30.9375L528.3 30.9822L528.167 31.0268L528.034 31.0714L527.901 31.1161L527.768 31.1607H527.635L527.502 31.2054H527.324L527.147 31.25H526.97H526.748H526.526H526.26H525.994H525.55L525.151 31.2054L524.707 31.1607L524.308 31.0714L523.909 30.9375L523.509 30.7589L523.11 30.5804L522.755 30.3125L522.445 30.0447L522.179 29.6875L521.912 29.2857L521.735 28.8393L521.557 28.3482L521.469 27.7679V27.1875L521.513 26.4732V26.2054L521.602 25.8929L521.646 25.5804L521.735 25.2232L521.868 24.8661L522.001 24.4643L522.223 24.1072L522.445 23.75L522.711 23.4375L523.021 23.0804L523.421 22.8125L523.82 22.5447L524.308 22.3661L524.84 22.1875L525.461 22.0982L526.127 22.0536H526.482L526.792 22.0982L527.147 22.1875L527.502 22.2322L527.857 22.3661L528.167 22.5447L528.478 22.7232L528.744 22.9464L529.01 23.2589L529.188 23.5714L529.365 23.9732L529.498 24.4197L529.543 24.9107V25.4911L529.498 26.1607L529.365 26.875L529.321 27.3661H523.243L523.598 25.7143H527.28V25.4911V25.3125V25.0893L527.236 24.9554L527.191 24.7768L527.103 24.6429L527.058 24.5089L526.97 24.375L526.836 24.2857L526.748 24.1964L526.615 24.1518L526.482 24.0625L526.348 24.0179L526.215 23.9732H526.082L525.949 23.9286H525.772L525.639 23.9732L525.461 24.0179L525.328 24.0625L525.195 24.1072L525.062 24.1964L524.929 24.2857L524.84 24.375L524.707 24.5089L524.618 24.6429L524.53 24.7768L524.441 24.9107L524.397 25.0447L524.308 25.2232L524.264 25.4018L524.219 25.5804L523.909 27.3214Z" fill="white"/>
<path d="M523.909 27.3214L523.864 27.4554V27.6339L523.909 27.7679V27.9464L523.997 28.0804L524.042 28.2589L524.13 28.3929L524.219 28.5714L524.352 28.7054L524.485 28.8393L524.618 28.9732L524.751 29.0625L524.929 29.1518L525.106 29.2411L525.239 29.2857L525.417 29.3304H525.639L525.861 29.375L526.082 29.4197H526.304H526.482H526.748H526.925H527.191L527.413 29.375L527.635 29.3304L527.857 29.2857L528.079 29.1964L528.3 29.1072L528.567 29.0179L528.788 28.8839L529.055 28.7054L528.7 30.8036L528.567 30.8482L528.433 30.9375L528.3 30.9822L528.167 31.0268L528.034 31.0714L527.901 31.1161L527.768 31.1607H527.635L527.502 31.2054H527.324L527.147 31.25H526.97H526.748H526.526H526.26H525.994H525.55L525.151 31.2054L524.707 31.1607L524.308 31.0714L523.909 30.9375L523.509 30.7589L523.11 30.5804L522.755 30.3125L522.445 30.0447L522.179 29.6875L521.912 29.2857L521.735 28.8393L521.557 28.3482L521.469 27.7679V27.1875L521.513 26.4732V26.2054L521.602 25.8929L521.646 25.5804L521.735 25.2232L521.868 24.8661L522.001 24.4643L522.223 24.1072L522.445 23.75L522.711 23.4375L523.021 23.0804L523.421 22.8125L523.82 22.5447L524.308 22.3661L524.84 22.1875L525.461 22.0982L526.127 22.0536H526.482L526.792 22.0982L527.147 22.1875L527.502 22.2322L527.857 22.3661L528.167 22.5447L528.478 22.7232L528.744 22.9464L529.01 23.2589L529.188 23.5714L529.365 23.9732L529.498 24.4197L529.543 24.9107V25.4911L529.498 26.1607L529.365 26.875L529.321 27.3661H523.243L523.598 25.7143H527.28V25.4911V25.3125V25.0893L527.236 24.9554L527.191 24.7768L527.103 24.6429L527.058 24.5089L526.97 24.375L526.836 24.2857L526.748 24.1964L526.615 24.1518L526.482 24.0625L526.348 24.0179L526.215 23.9732H526.082L525.949 23.9286H525.772L525.639 23.9732L525.461 24.0179L525.328 24.0625L525.195 24.1072L525.062 24.1964L524.929 24.2857L524.84 24.375L524.707 24.5089L524.618 24.6429L524.53 24.7768L524.441 24.9107L524.397 25.0447L524.308 25.2232L524.264 25.4018L524.219 25.5804L523.909 27.3214Z" stroke="white" stroke-width="0.216" stroke-miterlimit="2.6131"/>
<path fill-rule="evenodd" clip-rule="evenodd" d="M543.871 22.7678L543.782 22.6786L543.649 22.6339L543.561 22.5893L543.428 22.5L543.294 22.4553L543.161 22.4107L543.028 22.3661L542.851 22.3214L542.718 22.2768L542.54 22.2321L542.363 22.1875H542.185H542.008L541.831 22.1428H541.609H541.387H541.21L540.988 22.1875H540.766L540.5 22.2321L540.278 22.3214L540.056 22.4107L539.79 22.5L539.568 22.6786L539.346 22.8571L539.125 23.0803L538.903 23.3482L538.725 23.6607L538.548 24.0178L538.37 24.4643L538.193 24.9107L538.06 25.4464L538.015 25.7589L537.971 26.0714V26.3393V26.6518L538.015 26.9196L538.06 27.1875L538.149 27.4553L538.237 27.6786L538.37 27.9464L538.503 28.125L538.681 28.3482L538.858 28.5268L539.125 28.6607L539.346 28.7946L539.657 28.8839L539.967 28.9732L540.056 29.0178H540.189L540.367 29.0625H540.5H540.722H540.899H541.121H541.298L541.52 29.0178L541.742 28.9732L541.964 28.9286L542.185 28.8839L542.363 28.7946L542.585 28.6607L542.762 28.5268L542.895 28.3928L542.54 30.625L542.496 30.6696L542.452 30.7143L542.363 30.8036L542.274 30.8482L542.185 30.8928L542.097 30.9821L541.964 31.0268L541.786 31.0714L541.609 31.1161L541.387 31.1607L541.121 31.2053L540.855 31.25H540.5H540.145H539.701H539.258L538.858 31.2053L538.459 31.1161L538.104 30.9821L537.705 30.8036L537.35 30.625L536.995 30.3571L536.64 30.0446L536.33 29.7321L536.064 29.3303L535.842 28.9286L535.62 28.4375L535.487 27.9464L535.354 27.3661V26.7857V26.1161L535.443 25.4018L535.531 25.0446L535.576 24.7321L535.664 24.4196L535.753 24.1071L535.842 23.7946L535.975 23.4821L536.064 23.2143L536.197 22.9464L536.33 22.6786L536.418 22.4553L536.596 22.2321L536.729 22.0089L536.862 21.7857L537.04 21.5625L537.217 21.3839L537.394 21.2053L537.572 21.0714L537.794 20.8928L537.971 20.7589L538.193 20.625L538.415 20.4911L538.637 20.3571L538.858 20.2678L539.125 20.1786L539.391 20.0893L539.657 20.0446L539.923 19.9553L540.189 19.9107L540.5 19.8661H540.766L541.076 19.8214H541.387H541.653L541.919 19.8661H542.185L542.452 19.9107L542.673 19.9553L542.895 20L543.117 20.0446L543.294 20.0893L543.516 20.1339L543.649 20.1786L543.827 20.2232L543.96 20.2678L544.093 20.3125L544.182 20.3571L544.27 20.4018H544.315L543.871 22.7678Z" fill="white"/>
<path d="M543.871 22.7678L543.782 22.6786L543.649 22.6339L543.561 22.5893L543.428 22.5L543.294 22.4553L543.161 22.4107L543.028 22.3661L542.851 22.3214L542.718 22.2768L542.54 22.2321L542.363 22.1875H542.185H542.008L541.831 22.1428H541.609H541.387H541.21L540.988 22.1875H540.766L540.5 22.2321L540.278 22.3214L540.056 22.4107L539.79 22.5L539.568 22.6786L539.346 22.8571L539.125 23.0803L538.903 23.3482L538.725 23.6607L538.548 24.0178L538.37 24.4643L538.193 24.9107L538.06 25.4464L538.015 25.7589L537.971 26.0714V26.3393V26.6518L538.015 26.9196L538.06 27.1875L538.149 27.4553L538.237 27.6786L538.37 27.9464L538.503 28.125L538.681 28.3482L538.858 28.5268L539.125 28.6607L539.346 28.7946L539.657 28.8839L539.967 28.9732L540.056 29.0178H540.189L540.367 29.0625H540.5H540.722H540.899H541.121H541.298L541.52 29.0178L541.742 28.9732L541.964 28.9286L542.185 28.8839L542.363 28.7946L542.585 28.6607L542.762 28.5268L542.895 28.3928L542.54 30.625L542.496 30.6696L542.452 30.7143L542.363 30.8036L542.274 30.8482L542.185 30.8928L542.097 30.9821L541.964 31.0268L541.786 31.0714L541.609 31.1161L541.387 31.1607L541.121 31.2053L540.855 31.25H540.5H540.145H539.701H539.258L538.858 31.2053L538.459 31.1161L538.104 30.9821L537.705 30.8036L537.35 30.625L536.995 30.3571L536.64 30.0446L536.33 29.7321L536.064 29.3303L535.842 28.9286L535.62 28.4375L535.487 27.9464L535.354 27.3661V26.7857V26.1161L535.443 25.4018L535.531 25.0446L535.576 24.7321L535.664 24.4196L535.753 24.1071L535.842 23.7946L535.975 23.4821L536.064 23.2143L536.197 22.9464L536.33 22.6786L536.418 22.4553L536.596 22.2321L536.729 22.0089L536.862 21.7857L537.04 21.5625L537.217 21.3839L537.394 21.2053L537.572 21.0714L537.794 20.8928L537.971 20.7589L538.193 20.625L538.415 20.4911L538.637 20.3571L538.858 20.2678L539.125 20.1786L539.391 20.0893L539.657 20.0446L539.923 19.9553L540.189 19.9107L540.5 19.8661H540.766L541.076 19.8214H541.387H541.653L541.919 19.8661H542.185L542.452 19.9107L542.673 19.9553L542.895 20L543.117 20.0446L543.294 20.0893L543.516 20.1339L543.649 20.1786L543.827 20.2232L543.96 20.2678L544.093 20.3125L544.182 20.3571L544.27 20.4018H544.315L543.871 22.7678Z" stroke="white" stroke-width="0.216" stroke-miterlimit="2.6131"/>
<path fill-rule="evenodd" clip-rule="evenodd" d="M564.499 31.25H562.192L562.37 30.3571V30.2678L562.237 30.4018L562.104 30.5803L561.926 30.7143L561.793 30.8036L561.66 30.9375L561.483 31.0268L561.35 31.1161L561.172 31.1607L561.039 31.25L560.862 31.2946L560.684 31.3393H560.551L560.374 31.3839H560.196H560.019H559.886H559.442L559.043 31.25L558.688 31.1161L558.333 30.9375L558.022 30.6696L557.756 30.4018L557.534 30.0893L557.313 29.7321L557.18 29.375L557.046 28.9732L556.913 28.5268L556.869 28.125L556.825 27.6786L556.869 27.2321V26.8303L556.958 26.3839L557.091 25.8928L557.224 25.4018L557.401 25L557.623 24.5982L557.845 24.1964L558.111 23.8839L558.377 23.5714L558.643 23.3036L558.91 23.0357L559.22 22.8125L559.575 22.6339L559.886 22.5L560.196 22.3661L560.551 22.3214L560.862 22.2768L561.216 22.2321H561.483L561.704 22.2768L561.926 22.3214L562.104 22.3661L562.325 22.4553L562.459 22.5L562.636 22.6339L562.813 22.7232L562.947 22.8125L563.035 22.9018L563.168 23.0357L563.257 23.125L563.346 23.2589L563.434 23.3482L563.479 23.4375L563.523 23.5714L564.144 20.2232H566.407L564.499 31.25Z" fill="white"/>
<path d="M564.499 31.25H562.192L562.37 30.3571V30.2678L562.237 30.4018L562.104 30.5803L561.926 30.7143L561.793 30.8036L561.66 30.9375L561.483 31.0268L561.35 31.1161L561.172 31.1607L561.039 31.25L560.862 31.2946L560.684 31.3393H560.551L560.374 31.3839H560.196H560.019H559.886H559.442L559.043 31.25L558.688 31.1161L558.333 30.9375L558.022 30.6696L557.756 30.4018L557.534 30.0893L557.313 29.7321L557.18 29.375L557.046 28.9732L556.913 28.5268L556.869 28.125L556.825 27.6786L556.869 27.2321V26.8303L556.958 26.3839L557.091 25.8928L557.224 25.4018L557.401 25L557.623 24.5982L557.845 24.1964L558.111 23.8839L558.377 23.5714L558.643 23.3036L558.91 23.0357L559.22 22.8125L559.575 22.6339L559.886 22.5L560.196 22.3661L560.551 22.3214L560.862 22.2768L561.216 22.2321H561.483L561.704 22.2768L561.926 22.3214L562.104 22.3661L562.325 22.4553L562.459 22.5L562.636 22.6339L562.813 22.7232L562.947 22.8125L563.035 22.9018L563.168 23.0357L563.257 23.125L563.346 23.2589L563.434 23.3482L563.479 23.4375L563.523 23.5714L564.144 20.2232H566.407L564.499 31.25Z" stroke="white" stroke-width="0.216" stroke-miterlimit="2.6131"/>
<path fill-rule="evenodd" clip-rule="evenodd" d="M560.729 29.2411L560.95 29.1964L561.172 29.1518L561.394 29.1071L561.571 29.0178L561.749 28.9286L561.926 28.7946L562.059 28.6607L562.192 28.4821L562.326 28.3036L562.459 28.125L562.547 27.9464L562.636 27.7232L562.725 27.5446L562.813 27.3214L562.858 27.0982L562.902 26.875L562.947 26.6071L562.991 26.3839V26.1607L562.947 25.8928V25.6696L562.902 25.4911L562.858 25.2678L562.769 25.0893L562.68 24.9107L562.592 24.7321L562.503 24.5982L562.37 24.5089L562.237 24.4196L562.059 24.3303L561.926 24.2857H561.749H561.527L561.305 24.3303L561.083 24.375L560.906 24.4643L560.729 24.5982L560.595 24.7321L560.418 24.8661L560.285 25.0446L560.152 25.2232L560.063 25.4018L559.93 25.625L559.841 25.8036L559.753 26.0714L559.708 26.2946L559.619 26.5178L559.575 26.7857L559.531 27.1428L559.575 27.5446L559.619 27.9464L559.708 28.3482L559.886 28.7053L560.107 28.9732L560.374 29.1518L560.729 29.2411Z" fill="#FCB331"/>
<path fill-rule="evenodd" clip-rule="evenodd" d="M509.269 29.4197L508.914 31.25H506.829L506.874 30.9375L506.918 30.625L506.963 30.3572L507.007 30.2679L506.874 30.4018L506.741 30.5357L506.563 30.6697L506.386 30.759L506.208 30.8929L505.987 30.9822L505.765 31.0715L505.543 31.1607L505.321 31.25L505.055 31.2947L504.833 31.3393L504.567 31.384L504.345 31.4286H504.079L503.857 31.384L503.635 31.3393L503.325 31.2947L503.059 31.2054L502.837 31.0715L502.615 30.9822L502.438 30.8036L502.26 30.6697L502.127 30.4911L501.994 30.3572L501.905 30.1786L501.817 30L501.772 29.7768L501.728 29.5982L501.684 29.4197L501.639 29.2411V29.0179V28.8393L501.684 28.5268L501.728 28.2143L501.817 27.9018L501.905 27.634L502.038 27.3661L502.172 27.0982L502.349 26.875L502.571 26.6518L502.793 26.4732L503.014 26.2947L503.236 26.1161L503.502 25.9822L503.769 25.8929L504.035 25.8036L504.345 25.7143L504.611 25.6697H504.656H504.7H504.745L504.833 25.625H504.922H505.055L505.188 25.5804H505.321H505.454L505.587 25.5357H505.765H505.898L506.031 25.4911H506.164H506.253H506.342H506.563H506.741H506.918H507.14L507.273 25.5357H507.406H507.495L507.539 25.4911L507.584 25.3125L507.628 25.134V25L507.584 24.8215L507.539 24.6429L507.406 24.4643L507.273 24.375L507.14 24.2411L506.963 24.1518L506.741 24.1072H506.519H506.297H506.031H505.765H505.499H505.232L504.966 24.1518H504.7L504.434 24.1965L504.212 24.2411L503.946 24.2857L503.724 24.3304L503.547 24.375L503.325 24.4197L503.192 24.4643L503.059 24.509L502.97 24.5536L503.591 22.5447L503.769 22.4554L503.946 22.4107L504.168 22.3215L504.345 22.2768L504.567 22.2322H504.789L504.966 22.1875H505.232L505.454 22.1429H505.676H505.942H506.208H506.475H506.741H507.051H507.317L507.584 22.1875H507.805L508.072 22.2768L508.338 22.3215L508.604 22.4554L508.87 22.5447L509.092 22.7232L509.358 22.8572L509.536 23.0357L509.757 23.259L509.89 23.4822L510.024 23.75L510.112 24.0179L510.157 24.2857V24.5982L510.112 24.9554L509.269 29.4197Z" fill="white"/>
<path d="M509.269 29.4197L508.914 31.25H506.829L506.874 30.9375L506.918 30.625L506.963 30.3572L507.007 30.2679L506.874 30.4018L506.741 30.5357L506.563 30.6697L506.386 30.759L506.208 30.8929L505.987 30.9822L505.765 31.0715L505.543 31.1607L505.321 31.25L505.055 31.2947L504.833 31.3393L504.567 31.384L504.345 31.4286H504.079L503.857 31.384L503.635 31.3393L503.325 31.2947L503.059 31.2054L502.837 31.0715L502.615 30.9822L502.438 30.8036L502.26 30.6697L502.127 30.4911L501.994 30.3572L501.905 30.1786L501.817 30L501.772 29.7768L501.728 29.5982L501.684 29.4197L501.639 29.2411V29.0179V28.8393L501.684 28.5268L501.728 28.2143L501.817 27.9018L501.905 27.634L502.038 27.3661L502.172 27.0982L502.349 26.875L502.571 26.6518L502.793 26.4732L503.014 26.2947L503.236 26.1161L503.502 25.9822L503.769 25.8929L504.035 25.8036L504.345 25.7143L504.611 25.6697H504.656H504.7H504.745L504.833 25.625H504.922H505.055L505.188 25.5804H505.321H505.454L505.587 25.5357H505.765H505.898L506.031 25.4911H506.164H506.253H506.342H506.563H506.741H506.918H507.14L507.273 25.5357H507.406H507.495L507.539 25.4911L507.584 25.3125L507.628 25.134V25L507.584 24.8215L507.539 24.6429L507.406 24.4643L507.273 24.375L507.14 24.2411L506.963 24.1518L506.741 24.1072H506.519H506.297H506.031H505.765H505.499H505.232L504.966 24.1518H504.7L504.434 24.1965L504.212 24.2411L503.946 24.2857L503.724 24.3304L503.547 24.375L503.325 24.4197L503.192 24.4643L503.059 24.509L502.97 24.5536L503.591 22.5447L503.769 22.4554L503.946 22.4107L504.168 22.3215L504.345 22.2768L504.567 22.2322H504.789L504.966 22.1875H505.232L505.454 22.1429H505.676H505.942H506.208H506.475H506.741H507.051H507.317L507.584 22.1875H507.805L508.072 22.2768L508.338 22.3215L508.604 22.4554L508.87 22.5447L509.092 22.7232L509.358 22.8572L509.536 23.0357L509.757 23.259L509.89 23.4822L510.024 23.75L510.112 24.0179L510.157 24.2857V24.5982L510.112 24.9554L509.269 29.4197Z" stroke="white" stroke-width="0.216" stroke-miterlimit="2.6131"/>
<path fill-rule="evenodd" clip-rule="evenodd" d="M507.229 27.1875V27.1429V27.0982H507.14L507.096 27.0536H506.963H506.874H506.741H506.608H506.475H506.342L506.208 27.0982H506.075L505.942 27.1429H505.854L505.72 27.1875H505.632L505.587 27.2322H505.499L505.41 27.2768L505.321 27.3214L505.232 27.3661L505.099 27.4107L505.011 27.5L504.878 27.5447L504.789 27.6339L504.656 27.7232L504.567 27.8125L504.478 27.9464L504.39 28.0357L504.345 28.1697L504.257 28.3036V28.4375V28.7054L504.301 28.9286L504.39 29.1072L504.478 29.2411L504.611 29.3304L504.745 29.375H504.878L505.011 29.4197L505.277 29.375H505.499L505.72 29.3304L505.898 29.2857L506.075 29.2411L506.208 29.1518L506.386 29.0625L506.475 28.9732L506.608 28.8839L506.696 28.7947L506.785 28.7054L506.874 28.6161L506.918 28.4822L506.963 28.3929L507.007 28.3036L507.051 28.2143L507.096 27.9464L507.14 27.6786L507.229 27.4107V27.1875Z" fill="#ED1C2E"/>
<path fill-rule="evenodd" clip-rule="evenodd" d="M491.658 31.25H489.351L491.259 20.2232H495.207L495.606 26.7857L498.356 20.2232H502.482L500.53 31.25H498.268L499.687 22.9911H499.599L496.183 31.25H493.61V30.9375L493.565 30L493.477 28.7053L493.388 27.1875L493.299 25.6696L493.255 24.375L493.166 23.3928V22.9911H493.122H493.077H493.033L491.658 31.25Z" fill="white"/>
<path d="M491.658 31.25H489.351L491.259 20.2232H495.207L495.606 26.7857L498.356 20.2232H502.482L500.53 31.25H498.268L499.687 22.9911H499.599L496.183 31.25H493.61V30.9375L493.565 30L493.477 28.7053L493.388 27.1875L493.299 25.6696L493.255 24.375L493.166 23.3928V22.9911H493.122H493.077H493.033L491.658 31.25Z" stroke="white" stroke-width="0.216" stroke-miterlimit="2.6131"/>
<path fill-rule="evenodd" clip-rule="evenodd" d="M550.836 29.4197L550.525 31.25H548.396L548.44 30.9375V30.625V30.4018V30.3125L548.352 30.4018L548.219 30.5357L548.041 30.6697L547.908 30.8036L547.731 30.8929L547.509 30.9822L547.287 31.1161L547.11 31.1607L546.888 31.25L546.622 31.2947L546.4 31.3393L546.178 31.384L545.912 31.4286H545.69L545.468 31.384L545.246 31.3393L544.936 31.2947L544.67 31.2054L544.448 31.0715L544.226 30.9822L544.049 30.8036L543.871 30.6697L543.738 30.4911L543.605 30.3572L543.516 30.1786L543.428 30L543.383 29.7768L543.339 29.5982L543.294 29.4197V29.2411L543.25 29.0179V28.8393L543.294 28.5268L543.339 28.2143L543.383 27.9018L543.516 27.634L543.649 27.3661L543.782 27.0982L543.96 26.875L544.182 26.6518L544.404 26.4732L544.625 26.2947L544.847 26.1161L545.113 25.9822L545.379 25.8929L545.646 25.8036L545.912 25.7143L546.222 25.6697H546.267H546.311L546.4 25.625H546.533H546.622L546.755 25.5804H546.888H547.021L547.198 25.5357H547.331H547.464L547.598 25.4911H547.731H547.864H547.952H548.13H548.352H548.529H548.707L548.884 25.5357H549.017H549.061H549.106L549.15 25.4911V25.3125L549.195 25.134V25L549.15 24.8215L549.106 24.6429L548.973 24.4643L548.884 24.375L548.707 24.2411L548.529 24.1518L548.352 24.1072H548.174H547.908H547.686H547.42H547.154H546.843L546.577 24.1518H546.311L546.045 24.1965L545.823 24.2411L545.557 24.2857L545.335 24.3304L545.158 24.375L544.98 24.4197L544.803 24.4643L544.714 24.509L544.625 24.5536L545.202 22.5447L545.379 22.4554L545.557 22.4107L545.779 22.3215L545.956 22.2768L546.178 22.2322H546.4L546.622 22.1875H546.843L547.065 22.1429H547.287H547.553H547.819H548.086H548.352H548.618H548.884L549.15 22.1875H549.372L549.638 22.2768L549.904 22.3215L550.17 22.4554L550.437 22.5447L550.703 22.7232L550.925 22.8572L551.146 23.0357L551.324 23.259L551.501 23.4822L551.634 23.75L551.723 24.0179L551.767 24.2857V24.5982L551.723 24.9554L550.836 29.4197Z" fill="white"/>
<path fill-rule="evenodd" clip-rule="evenodd" d="M550.525 31.3393L550.57 31.2946L550.88 29.4196L550.792 29.375L550.437 31.25L550.525 31.2054V31.3393H550.57V31.2946L550.525 31.3393Z" fill="white"/>
<path fill-rule="evenodd" clip-rule="evenodd" d="M548.352 31.25L548.396 31.3392H550.525V31.2053H548.396L548.44 31.25H548.352V31.3392H548.396L548.352 31.25Z" fill="white"/>
<path fill-rule="evenodd" clip-rule="evenodd" d="M548.485 30.3125L548.396 30.2678V30.4017L548.352 30.625V30.9375V31.25H548.44L548.485 30.9375V30.625V30.4017V30.3125L548.396 30.2678L548.485 30.3125Z" fill="white"/>
<path fill-rule="evenodd" clip-rule="evenodd" d="M545.246 31.4285H545.468L545.69 31.4732H545.912L546.178 31.4285H546.4L546.666 31.3839L546.888 31.2946L547.11 31.25L547.331 31.1607L547.553 31.0267L547.731 30.9375L547.908 30.8035L548.086 30.7143L548.263 30.5803L548.396 30.4464L548.485 30.3125L548.396 30.2678L548.307 30.4017L548.174 30.491L548.041 30.625L547.864 30.7589L547.686 30.8482L547.509 30.9375L547.287 31.0267L547.065 31.116L546.843 31.2053L546.622 31.25L546.4 31.2946L546.178 31.3392H545.912L545.69 31.3839L545.468 31.3392L545.246 31.2946V31.4285Z" fill="white"/>
<path fill-rule="evenodd" clip-rule="evenodd" d="M543.206 28.8393V29.0179V29.2411L543.25 29.4197L543.294 29.5982L543.339 29.8214L543.383 30L543.472 30.1786L543.561 30.3571L543.694 30.5357L543.827 30.7143L544.004 30.8482L544.182 30.9821L544.404 31.1161L544.67 31.25L544.936 31.3393L545.246 31.4286V31.2946L544.936 31.25L544.67 31.1607L544.448 31.0268L544.226 30.9375L544.049 30.8036L543.916 30.625L543.782 30.4911L543.649 30.3125L543.561 30.1339L543.472 29.9554L543.428 29.7768L543.383 29.5982L543.339 29.4197V29.2411L543.294 29.0179L543.339 28.8393H543.206Z" fill="white"/>
<path fill-rule="evenodd" clip-rule="evenodd" d="M546.222 25.625L545.912 25.6696L545.646 25.7589L545.335 25.8482L545.069 25.9375L544.847 26.0714L544.581 26.25L544.359 26.4286L544.137 26.6518L543.916 26.8304L543.738 27.0982L543.605 27.3214L543.472 27.6339L543.339 27.9018L543.294 28.2143L543.206 28.5268V28.8393H543.339V28.5268L543.383 28.2143L543.472 27.9464L543.561 27.6339L543.694 27.3661L543.827 27.1429L544.004 26.9196L544.182 26.6964L544.404 26.5179L544.625 26.3393L544.891 26.2054L545.158 26.0714L545.379 25.9375L545.646 25.8482L545.912 25.7589L546.222 25.7143V25.625Z" fill="white"/>
<path fill-rule="evenodd" clip-rule="evenodd" d="M547.952 25.4464H547.864H547.731H547.598L547.464 25.4911H547.331H547.198H547.021L546.888 25.5357H546.755L546.622 25.5803H546.533H546.4H546.311L546.267 25.625H546.222V25.7143H546.267H546.311L546.4 25.6696H546.533H546.622H546.755L546.888 25.625H547.021L547.198 25.5803H547.331H547.464H547.598L547.731 25.5357H547.864H547.952V25.4464Z" fill="white"/>
<path fill-rule="evenodd" clip-rule="evenodd" d="M549.061 25.5357L549.106 25.4911H549.061H549.017H548.884L548.707 25.4464H548.529H548.352H548.13H547.952V25.5357H548.13H548.352L548.529 25.5803H548.707H548.884H549.017H549.061H549.106L549.15 25.5357L549.106 25.5803H549.15V25.5357H549.061Z" fill="white"/>
<path fill-rule="evenodd" clip-rule="evenodd" d="M549.15 25V25.1339L549.106 25.3125L549.061 25.4911V25.5357H549.15L549.195 25.4911V25.3571L549.239 25.1339V25H549.15Z" fill="white"/>
<path fill-rule="evenodd" clip-rule="evenodd" d="M548.174 24.1518H548.352L548.529 24.2411L548.707 24.2857L548.84 24.4196L548.928 24.5089L549.061 24.6429L549.106 24.8214L549.15 25H549.239L549.195 24.7768L549.15 24.5982L549.017 24.4643L548.884 24.3304L548.751 24.1964L548.573 24.1071L548.352 24.0625H548.174V24.1518Z" fill="white"/>
<path fill-rule="evenodd" clip-rule="evenodd" d="M544.537 24.5535L544.625 24.5982L544.714 24.5535L544.847 24.5089L544.98 24.4643L545.158 24.4196L545.379 24.375L545.601 24.3303L545.823 24.2857L546.045 24.241L546.311 24.1964H546.577L546.843 24.1518H547.154H547.42H547.686H547.908H548.174V24.0625H547.908L547.686 24.0178H547.42L547.154 24.0625H546.843L546.577 24.1071H546.311L546.045 24.1518L545.823 24.1964L545.557 24.241L545.335 24.2857H545.158L544.98 24.375L544.803 24.4196L544.67 24.4643L544.581 24.5089L544.67 24.5982L544.537 24.5535Z" fill="white"/>
<path fill-rule="evenodd" clip-rule="evenodd" d="M545.158 22.5V22.5446L544.537 24.5536L544.67 24.5982L545.246 22.5446L545.202 22.5893L545.158 22.5V22.5446V22.5Z" fill="white"/>
<path fill-rule="evenodd" clip-rule="evenodd" d="M548.884 22.0982H548.618L548.352 22.0536H548.086H547.819H547.553L547.287 22.0982H547.065H546.843L546.622 22.1429L546.355 22.1875H546.178L545.956 22.2322L545.734 22.2768L545.557 22.3214L545.38 22.4107L545.158 22.5L545.202 22.5893L545.38 22.5L545.601 22.4554L545.779 22.3661L545.956 22.3214H546.178L546.4 22.2768L546.622 22.2322H546.843L547.065 22.1875H547.287H547.553H547.819H548.086H548.352H548.618H548.884V22.0982Z" fill="white"/>
<path fill-rule="evenodd" clip-rule="evenodd" d="M551.768 24.9553L551.812 24.5982V24.2857L551.768 24.0178L551.679 23.7053L551.546 23.4375L551.368 23.2143L551.146 22.9911L550.969 22.8125L550.703 22.6786L550.481 22.5L550.215 22.4107L549.949 22.2768L549.638 22.2321L549.416 22.1428L549.15 22.0982H548.884V22.1875L549.15 22.2321L549.372 22.2768L549.638 22.3214L549.904 22.4107L550.171 22.5L550.392 22.6339L550.658 22.7678L550.88 22.9018L551.102 23.0803L551.28 23.3036L551.457 23.5268L551.59 23.75L551.679 24.0178L551.723 24.2857V24.5982L551.679 24.9553H551.768Z" fill="white"/>
<path fill-rule="evenodd" clip-rule="evenodd" d="M550.88 29.4196L551.768 24.9553H551.679L550.792 29.375L550.88 29.4196Z" fill="white"/>
<path fill-rule="evenodd" clip-rule="evenodd" d="M548.84 27.1875L548.795 27.1429L548.751 27.0982H548.707L548.618 27.0536H548.529H548.44H548.307H548.174H548.041L547.908 27.0982H547.775H547.642L547.509 27.1429H547.42L547.287 27.1875H547.243H547.154L547.11 27.2322L547.021 27.2768H546.932L546.799 27.3214L546.71 27.4107L546.577 27.4554L546.488 27.5447L546.355 27.5893L546.267 27.6786L546.178 27.7679L546.089 27.9018L546.001 28.0357L545.956 28.125L545.912 28.2589L545.867 28.4375V28.7054L545.912 28.9286L545.956 29.1072L546.089 29.2411L546.178 29.3304L546.355 29.375H546.488L546.622 29.4197L546.888 29.375H547.11L547.331 29.3304L547.509 29.2857L547.686 29.1964L547.864 29.1072L547.997 29.0179L548.174 28.9286L548.263 28.8393L548.352 28.75L548.44 28.6161L548.529 28.5268L548.618 28.4375V28.3036L548.662 28.2143L548.707 28.125L548.751 27.9018V27.6339L548.795 27.4107L548.84 27.1875Z" fill="#FCB331"/>
<path fill-rule="evenodd" clip-rule="evenodd" d="M566.096 30.1339V29.9107L566.185 29.6875L566.274 29.5089L566.407 29.3303L566.584 29.1518L566.806 29.0625L567.028 29.0178L567.25 28.9732L567.471 29.0178L567.693 29.0625L567.915 29.1518L568.092 29.3303L568.226 29.5089L568.359 29.6875L568.403 29.9107L568.447 30.1339H568.181V29.9553L568.137 29.7768L568.048 29.5982L567.915 29.4643L567.782 29.3303L567.649 29.2857L567.427 29.1964H567.25H567.072L566.895 29.2857L566.717 29.3303L566.584 29.4643L566.495 29.5982L566.407 29.7768L566.362 29.9553L566.318 30.1339H566.096Z" fill="white"/>
<path fill-rule="evenodd" clip-rule="evenodd" d="M566.85 30.1339V29.5982H567.294H567.383L567.471 29.6428H567.56L567.604 29.6875L567.649 29.7321L567.693 29.7768V29.8661V29.9107V30V30.0446L567.649 30.0893V30.1339H567.294L567.338 30.0893H567.383H567.427L567.471 30.0446H567.516V30L567.56 29.9553V29.9107V29.8661L567.516 29.8214H567.471L567.427 29.7768H567.383H567.338H567.294H567.028V30.1339H566.85Z" fill="white"/>
<path fill-rule="evenodd" clip-rule="evenodd" d="M566.096 30.1339L566.052 30.1786L566.096 30.4018L566.185 30.625L566.274 30.8482L566.407 31.0268L566.584 31.1607L566.806 31.25L567.028 31.3393H567.25H567.471L567.693 31.25L567.915 31.1607L568.092 31.0268L568.226 30.8482L568.359 30.625L568.403 30.4018L568.447 30.1786V30.1339H568.181V30.1786V30.3571L568.137 30.5357L568.048 30.7143L567.915 30.8482L567.782 30.9821L567.649 31.0714L567.427 31.1161L567.25 31.1607L567.072 31.1161L566.895 31.0714L566.717 30.9821L566.584 30.8482L566.495 30.7143L566.407 30.5357L566.362 30.3571L566.318 30.1786V30.1339H566.096Z" fill="white"/>
<path fill-rule="evenodd" clip-rule="evenodd" d="M566.85 30.1339V30.625H567.028V30.2232H567.25L567.516 30.625H567.693L567.427 30.2232H567.471L567.56 30.1786H567.604L567.649 30.1339H567.294H567.25H567.028H566.85Z" fill="white"/>
<path d="M566.052 30.1786L566.096 29.9553L566.185 29.7321L566.318 29.5089L566.451 29.3303L566.629 29.1964L566.85 29.1071L567.072 29.0178L567.294 28.9732L567.516 29.0178L567.738 29.1071L567.959 29.1964L568.137 29.3303L568.27 29.5089L568.403 29.7321L568.492 29.9553L568.536 30.1786L568.492 30.4018L568.403 30.625L568.27 30.8482L568.137 31.0268L567.959 31.1607L567.738 31.25L567.516 31.3393L567.294 31.3839L567.072 31.3393L566.85 31.25L566.629 31.1607L566.451 31.0268L566.318 30.8482L566.185 30.625L566.096 30.4018L566.052 30.1786ZM567.028 30.625H566.85V29.5982H567.294H567.383H567.471L567.56 29.6428L567.604 29.6875L567.649 29.7321L567.693 29.7768V29.8214V29.8661V29.9553V30L567.649 30.0446L567.604 30.0893L567.56 30.1339H567.516H567.471H567.427L567.693 30.5357H567.516L567.25 30.1339H567.028V30.625V30.625ZM567.25 30.1339H567.338H567.383H567.427H567.471L567.516 30.0893V30.0446V30V29.9107V29.8661V29.8214H567.471H567.427H567.383H567.338H567.294H567.028V30.1786H567.25V30.1339ZM567.25 31.1607H567.427L567.604 31.1161L567.782 31.0268L567.915 30.8928L568.004 30.7589L568.092 30.5804L568.181 30.3571V30.1339V29.9107L568.137 29.7321L568.048 29.5536L567.959 29.4196L567.826 29.2857L567.649 29.1964L567.471 29.1518H567.294H567.116L566.939 29.1964L566.762 29.2857L566.629 29.4196L566.54 29.5536L566.451 29.7321L566.407 29.9107V30.1339V30.3571L566.451 30.5357L566.54 30.7143L566.629 30.8482L566.762 30.9821L566.939 31.0714L567.116 31.1161L567.25 31.1607Z" stroke="white" stroke-width="0.216" stroke-miterlimit="2.6131"/>
<path fill-rule="evenodd" clip-rule="evenodd" d="M551.457 31.25H553.852L554.695 26.4732L554.74 26.2947L554.784 26.1161L554.828 25.9375L554.873 25.7143L554.962 25.5357L555.095 25.3572L555.183 25.2232L555.316 25.0447L555.449 24.9107L555.627 24.7768L555.849 24.6429L556.026 24.5536L556.292 24.4643L556.559 24.375L556.869 24.3304H557.18H557.313H557.357H557.401L557.756 22.1429L557.534 22.1875H557.313L557.091 22.2322L556.869 22.2768L556.692 22.3661L556.514 22.4554L556.381 22.5447L556.204 22.634L556.071 22.7679L555.893 22.8572L555.76 22.9911L555.627 23.125L555.538 23.3036L555.405 23.4375L555.272 23.6161L555.139 23.75L555.405 22.2322H553.054L551.457 31.25Z" fill="white"/>
<path d="M551.457 31.25H553.852L554.695 26.4732L554.74 26.2947L554.784 26.1161L554.828 25.9375L554.873 25.7143L554.962 25.5357L555.095 25.3572L555.183 25.2232L555.316 25.0447L555.449 24.9107L555.627 24.7768L555.849 24.6429L556.026 24.5536L556.292 24.4643L556.559 24.375L556.869 24.3304H557.18H557.313H557.357H557.401L557.756 22.1429L557.534 22.1875H557.313L557.091 22.2322L556.869 22.2768L556.692 22.3661L556.514 22.4554L556.381 22.5447L556.204 22.634L556.071 22.7679L555.893 22.8572L555.76 22.9911L555.627 23.125L555.538 23.3036L555.405 23.4375L555.272 23.6161L555.139 23.75L555.405 22.2322H553.054L551.457 31.25Z" stroke="white" stroke-width="0.216" stroke-miterlimit="2.6131"/>
<path fill-rule="evenodd" clip-rule="evenodd" d="M529.276 31.25H531.672H531.716L532.515 26.4732V26.2947L532.559 26.1161L532.603 25.9375L532.692 25.759L532.736 25.5804L532.825 25.4465L532.914 25.2679L533.047 25.134L533.18 25L533.313 24.9107L533.535 24.7768L533.712 24.6875L533.934 24.5982L534.2 24.5536L534.511 24.509L534.821 24.4643H534.866V24.509H534.91H534.955H534.999H535.043H535.088V24.375L535.132 24.2411L535.176 24.0625L535.221 23.8393L535.309 23.6161L535.354 23.3482L535.443 23.125L535.531 22.9465L535.62 22.8125L535.664 22.634L535.753 22.5L535.842 22.3661L535.886 22.2768L535.931 22.2322L535.975 22.1875H535.931H535.886H535.797H535.753L535.709 22.1429H535.62H535.576L535.309 22.1875H535.088L534.866 22.2322L534.644 22.2768L534.467 22.3661L534.289 22.4554L534.156 22.5L533.979 22.634L533.846 22.7232L533.712 22.8572L533.579 22.9911L533.446 23.125L533.313 23.259L533.224 23.4375L533.091 23.6161L532.958 23.75L533.269 22.2322H530.873L529.276 31.25Z" fill="white"/>
<path d="M529.276 31.25H531.672H531.716L532.515 26.4732V26.2947L532.559 26.1161L532.603 25.9375L532.692 25.759L532.736 25.5804L532.825 25.4465L532.914 25.2679L533.047 25.134L533.18 25L533.313 24.9107L533.535 24.7768L533.712 24.6875L533.934 24.5982L534.2 24.5536L534.511 24.509L534.821 24.4643H534.866V24.509H534.91H534.955H534.999H535.043H535.088V24.375L535.132 24.2411L535.176 24.0625L535.221 23.8393L535.309 23.6161L535.354 23.3482L535.443 23.125L535.531 22.9465L535.62 22.8125L535.664 22.634L535.753 22.5L535.842 22.3661L535.886 22.2768L535.931 22.2322L535.975 22.1875H535.931H535.886H535.797H535.753L535.709 22.1429H535.62H535.576L535.309 22.1875H535.088L534.866 22.2322L534.644 22.2768L534.467 22.3661L534.289 22.4554L534.156 22.5L533.979 22.634L533.846 22.7232L533.712 22.8572L533.579 22.9911L533.446 23.125L533.313 23.259L533.224 23.4375L533.091 23.6161L532.958 23.75L533.269 22.2322H530.873L529.276 31.25Z" stroke="white" stroke-width="0.216" stroke-miterlimit="2.6131"/>
<path fill-rule="evenodd" clip-rule="evenodd" d="M566.096 40.1339V40.0893L566.185 39.9107L566.274 39.6875L566.407 39.5089L566.584 39.375L566.806 39.2857L567.028 39.2411L567.25 39.1964L567.471 39.2411L567.693 39.2857L567.915 39.375L568.092 39.5089L568.226 39.6875L568.359 39.9107L568.403 40.0893V40.1339H568.181L568.137 39.9553L568.048 39.8214L567.915 39.6428L567.782 39.5536L567.649 39.4643L567.427 39.375H567.25H567.072L566.895 39.4643L566.717 39.5536L566.584 39.6428L566.495 39.8214L566.407 39.9553L566.362 40.1339H566.096Z" fill="#FCB331"/>
<path fill-rule="evenodd" clip-rule="evenodd" d="M566.85 40.1339V39.866H567.294H567.383H567.471H567.56L567.604 39.9107L567.649 39.9553L567.693 40V40.0446V40.1339H567.56V40.0892V40.0446H567.516V40H567.471H567.427L567.383 39.9553H567.338H567.294H567.028V40.1339H566.85Z" fill="#FCB331"/>
<path fill-rule="evenodd" clip-rule="evenodd" d="M566.052 40.3125L566.096 40.1339H566.362L566.318 40.3125H566.052Z" fill="#FCB331"/>
<path fill-rule="evenodd" clip-rule="evenodd" d="M566.85 40.3125V40.1339H567.028V40.3125H567.25H567.338L567.383 40.2678H567.427H567.471L567.516 40.2232V40.1786H567.56V40.1339H567.693V40.1786V40.2678L567.649 40.3125H566.85Z" fill="#FCB331"/>
<path fill-rule="evenodd" clip-rule="evenodd" d="M568.181 40.3125V40.1339H568.403L568.447 40.3125H568.181Z" fill="#FCB331"/>
<path fill-rule="evenodd" clip-rule="evenodd" d="M566.052 40.3125V40.3571L566.096 40.5804L566.185 40.8036L566.274 41.0268L566.407 41.2054L566.584 41.3393L566.806 41.4286L567.028 41.5179L567.25 41.5625L567.471 41.5179L567.693 41.4286L567.915 41.3393L568.092 41.2054L568.226 41.0268L568.359 40.8036L568.403 40.5804L568.447 40.3571V40.3125H568.181V40.3571V40.5357L568.137 40.7589L568.048 40.8929L567.915 41.0268L567.782 41.1607L567.649 41.25L567.427 41.2946L567.25 41.3393L567.072 41.2946L566.895 41.25L566.717 41.1607L566.584 41.0268L566.495 40.8929L566.407 40.7589L566.362 40.5357L566.318 40.3571V40.3125H566.052Z" fill="#FCB331"/>
<path fill-rule="evenodd" clip-rule="evenodd" d="M566.85 40.3125V40.8036H567.028V40.4018H567.25L567.516 40.8036H567.693L567.427 40.4018H567.471L567.56 40.3571H567.604L567.649 40.3125H566.85Z" fill="#FCB331"/>
<defs>
<clipPath id="clip0_598_39">
<rect width="149" height="31" fill="white" transform="translate(0 10)"/>
</clipPath>
<clipPath id="clip1_598_39">
<rect width="160" height="33" fill="white" transform="translate(238 9)"/>
</clipPath>
</defs>
</svg>
