<svg width="42" height="42" viewBox="0 0 42 42" fill="none" xmlns="http://www.w3.org/2000/svg">
<path d="M39.75 39.75L27.25 27.25L39.75 39.75ZM31.4167 16.8333C31.4167 18.7484 31.0395 20.6448 30.3066 22.4141C29.5737 24.1835 28.4995 25.7911 27.1453 27.1453C25.7911 28.4995 24.1835 29.5737 22.4141 30.3066C20.6448 31.0395 18.7484 31.4167 16.8333 31.4167C14.9182 31.4167 13.0219 31.0395 11.2525 30.3066C9.4832 29.5737 7.87555 28.4995 6.52136 27.1453C5.16717 25.7911 4.09297 24.1835 3.36009 22.4141C2.62721 20.6448 2.25 18.7484 2.25 16.8333C2.25 12.9656 3.78645 9.25626 6.52136 6.52136C9.25626 3.78645 12.9656 2.25 16.8333 2.25C20.7011 2.25 24.4104 3.78645 27.1453 6.52136C29.8802 9.25626 31.4167 12.9656 31.4167 16.8333Z" stroke="white" stroke-width="3" stroke-linecap="round" stroke-linejoin="round"/>
</svg>
