<svg width="27" height="26" viewBox="0 0 27 26" fill="none" xmlns="http://www.w3.org/2000/svg">
<path d="M12.5589 1.61935C12.876 0.736849 14.124 0.736848 14.4411 1.61935L16.9962 8.73077C17.135 9.11724 17.496 9.37954 17.9065 9.39217L25.4594 9.62462C26.3967 9.65347 26.7824 10.8404 26.041 11.4147L20.0672 16.0422C19.7426 16.2937 19.6047 16.7181 19.7195 17.1124L21.8324 24.3675C22.0946 25.2678 21.0849 26.0014 20.3097 25.4738L14.0626 21.2224C13.7231 20.9913 13.2769 20.9913 12.9374 21.2224L6.69031 25.4738C5.91507 26.0014 4.90537 25.2678 5.16758 24.3675L7.28049 17.1124C7.39531 16.7181 7.25742 16.2937 6.93277 16.0422L0.958955 11.4147C0.21763 10.8404 0.603301 9.65347 1.54059 9.62462L9.09351 9.39217C9.50397 9.37954 9.86499 9.11724 10.0038 8.73077L12.5589 1.61935Z" fill="#6F764D"/>
</svg>
